<mxfile modified="2024-02-10T08:22:03.273Z" host="app.diagrams.net" agent="Mozilla/5.0 (Windows NT 10.0; Win64; x64) AppleWebKit/537.36 (KHTML, like Gecko) Chrome/121.0.0.0 Safari/537.36" etag="ecNyw2gtGDAmaMj5Az0-" version="23.1.2" type="github">
  <diagram id="l8hXMBHkgcEJcSW0mbfh" name="Page-1">
    <mxGraphModel dx="1292" dy="595" grid="1" gridSize="10" guides="1" tooltips="1" connect="1" arrows="1" fold="1" page="1" pageScale="1" pageWidth="1169" pageHeight="827" math="0" shadow="0">
      <root>
        <mxCell id="0" />
        <mxCell id="1" parent="0" />
        <mxCell id="Wxa58QXRY7GNk46uSiOk-90" value="" style="whiteSpace=wrap;html=1;" vertex="1" parent="1">
          <mxGeometry x="150" y="346.5" width="968" height="110" as="geometry" />
        </mxCell>
        <mxCell id="Wxa58QXRY7GNk46uSiOk-85" style="edgeStyle=none;rounded=0;orthogonalLoop=1;jettySize=auto;html=1;exitX=0.5;exitY=1;exitDx=0;exitDy=0;entryX=0.5;entryY=0;entryDx=0;entryDy=0;" edge="1" parent="1" source="Wxa58QXRY7GNk46uSiOk-77" target="Wxa58QXRY7GNk46uSiOk-83">
          <mxGeometry relative="1" as="geometry" />
        </mxCell>
        <mxCell id="Wxa58QXRY7GNk46uSiOk-77" value="" style="whiteSpace=wrap;html=1;" vertex="1" parent="1">
          <mxGeometry x="150" y="512" width="968" height="110" as="geometry" />
        </mxCell>
        <mxCell id="Wxa58QXRY7GNk46uSiOk-1" value="Agent" style="shape=image;verticalLabelPosition=bottom;verticalAlign=top;imageAspect=0;aspect=fixed;image=data:image/svg+xml,PHN2ZyB4bWxucz0iaHR0cDovL3d3dy53My5vcmcvMjAwMC9zdmciIHZlcnNpb249IjEiIHZpZXdCb3g9IjAgMCA0OCA0OCIgZW5hYmxlLWJhY2tncm91bmQ9Im5ldyAwIDAgNDggNDgiPiYjeGE7ICAgIDxwb2x5Z29uIGZpbGw9IiNGRjk4MDAiIHBvaW50cz0iMjQsMzcgMTksMzEgMTksMjUgMjksMjUgMjksMzEiLz4mI3hhOyAgICA8ZyBmaWxsPSIjRkZBNzI2Ij4mI3hhOyAgICAgICAgPGNpcmNsZSBjeD0iMzMiIGN5PSIxOSIgcj0iMiIvPiYjeGE7ICAgICAgICA8Y2lyY2xlIGN4PSIxNSIgY3k9IjE5IiByPSIyIi8+JiN4YTsgICAgPC9nPiYjeGE7ICAgIDxwYXRoIGZpbGw9IiNGRkI3NEQiIGQ9Ik0zMywxM2MwLTcuNi0xOC01LTE4LDBjMCwxLjEsMCw1LjksMCw3YzAsNSw0LDksOSw5czktNCw5LTlDMzMsMTguOSwzMywxNC4xLDMzLDEzeiIvPiYjeGE7ICAgIDxwYXRoIGZpbGw9IiM0MjQyNDIiIGQ9Ik0yNCw0Yy02LjEsMC0xMCw0LjktMTAsMTFjMCwwLjgsMCwyLjMsMCwyLjNsMiwxLjd2LTVsMTItNGw0LDR2NWwyLTEuN2MwLDAsMC0xLjUsMC0yLjNjMC00LTEtOC02LTlsLTEtMiBIMjR6Ii8+JiN4YTsgICAgPGcgZmlsbD0iIzc4NDcxOSI+JiN4YTsgICAgICAgIDxjaXJjbGUgY3g9IjI4IiBjeT0iMTkiIHI9IjEiLz4mI3hhOyAgICAgICAgPGNpcmNsZSBjeD0iMjAiIGN5PSIxOSIgcj0iMSIvPiYjeGE7ICAgIDwvZz4mI3hhOyAgICA8cG9seWdvbiBmaWxsPSIjZmZmIiBwb2ludHM9IjI0LDQzIDE5LDMxIDI0LDMyIDI5LDMxIi8+JiN4YTsgICAgPHBvbHlnb24gZmlsbD0iI0QzMkYyRiIgcG9pbnRzPSIyMywzNSAyMi4zLDM5LjUgMjQsNDMuNSAyNS43LDM5LjUgMjUsMzUgMjYsMzQgMjQsMzIgMjIsMzQiLz4mI3hhOyAgICA8cGF0aCBmaWxsPSIjNTQ2RTdBIiBkPSJNMjksMzFMMjksMzFsLTUsMTJsLTUtMTJjMCwwLTExLDItMTEsMTNoMzJDNDAsMzMsMjksMzEsMjksMzF6Ii8+JiN4YTs8L3N2Zz4=;labelBackgroundColor=#ffffff;" vertex="1" parent="1">
          <mxGeometry x="312" y="537" width="48" height="48" as="geometry" />
        </mxCell>
        <mxCell id="Wxa58QXRY7GNk46uSiOk-5" value="" style="group" vertex="1" connectable="0" parent="1">
          <mxGeometry x="202" y="213.5" width="76" height="78" as="geometry" />
        </mxCell>
        <mxCell id="Wxa58QXRY7GNk46uSiOk-3" value="" style="shape=image;verticalLabelPosition=bottom;verticalAlign=top;imageAspect=0;aspect=fixed;image=data:image/svg+xml,PHN2ZyB4bWxucz0iaHR0cDovL3d3dy53My5vcmcvMjAwMC9zdmciIHZlcnNpb249IjEiIHZpZXdCb3g9IjAgMCA0OCA0OCIgZW5hYmxlLWJhY2tncm91bmQ9Im5ldyAwIDAgNDggNDgiPiYjeGE7ICAgIDxwYXRoIGZpbGw9IiNGRkI3NEQiIGQ9Ik0yOSw0M3YtNC42bDIuNiwwLjVjMi45LDAuNiw1LjYtMS41LDUuOC00LjRMMzgsMjhsMi45LTEuMmMxLTAuNCwxLjQtMS42LDAuOC0yLjZMMzgsMTggYy0wLjYtNy42LTQuOS0xNS0xNi0xNUMxMC42LDMsNSwxMS40LDUsMjBjMCwzLjcsMS4zLDYuOSwzLjMsOS42YzEuOCwyLjUsMi43LDUuNSwyLjcsOC41bDAsNC44SDI5eiIvPiYjeGE7ICAgIDxwb2x5Z29uIGZpbGw9IiNGRjk4MDAiIHBvaW50cz0iMjksNDMgMjksMzguNCAyMiwzNyAyMiw0MyIvPiYjeGE7ICAgIDxjaXJjbGUgZmlsbD0iIzc4NDcxOSIgY3g9IjMzLjUiIGN5PSIyMS41IiByPSIxLjUiLz4mI3hhOyAgICA8cGF0aCBmaWxsPSIjRkY1NzIyIiBkPSJNMjEuNCwzQzEyLjMsMyw1LDEwLjMsNSwxOS40YzAsMTEuMSw2LDExLjQsNiwxOC42bDIuNi0wLjljMi4xLTAuNywzLjktMi4zLDQuNy00LjRsMi44LTYuOEwyNywyM3YtNiBjMCwwLDctMy44LDctMTAuM0MzMSw0LjIsMjUuNywzLDIxLjQsM3oiLz4mI3hhOyAgICA8ZyBmaWxsPSIjNTQ2RTdBIj4mI3hhOyAgICAgICAgPHBhdGggZD0iTTIxLDIuMWMtMC42LDAtMSwwLjQtMSwxdjEzLjljMCwwLjYsMC40LDEsMSwxczEtMC40LDEtMVYzLjFDMjIsMi41LDIxLjYsMi4xLDIxLDIuMXoiLz4mI3hhOyAgICAgICAgPHBhdGggZD0iTTM2LjksMzEuOWMtNy45LDAtMTAuMy00LjktMTAuNC01LjFjLTAuMi0wLjUtMC44LTAuNy0xLjMtMC41Yy0wLjUsMC4yLTAuNywwLjgtMC41LDEuMyBjMC4xLDAuMywzLDYuMywxMi4yLDYuM2MwLjYsMCwxLTAuNCwxLTFTMzcuNCwzMS45LDM2LjksMzEuOXoiLz4mI3hhOyAgICA8L2c+JiN4YTsgICAgPGNpcmNsZSBmaWxsPSIjMzc0NzRGIiBjeD0iMzciIGN5PSIzMyIgcj0iMiIvPiYjeGE7ICAgIDxjaXJjbGUgZmlsbD0iIzM3NDc0RiIgY3g9IjIxIiBjeT0iMjMiIHI9IjciLz4mI3hhOyAgICA8Y2lyY2xlIGZpbGw9IiM1NDZFN0EiIGN4PSIyMSIgY3k9IjIzIiByPSI0Ii8+JiN4YTs8L3N2Zz4=;" vertex="1" parent="Wxa58QXRY7GNk46uSiOk-5">
          <mxGeometry x="16" width="48" height="48" as="geometry" />
        </mxCell>
        <mxCell id="Wxa58QXRY7GNk46uSiOk-4" value="Call Center&lt;br style=&quot;border-color: var(--border-color); padding: 0px; margin: 0px;&quot;&gt;&lt;span style=&quot;background-color: rgb(255, 255, 255);&quot;&gt;Operator&lt;/span&gt;" style="text;strokeColor=none;align=center;fillColor=none;html=1;verticalAlign=middle;whiteSpace=wrap;rounded=0;" vertex="1" parent="Wxa58QXRY7GNk46uSiOk-5">
          <mxGeometry y="48" width="76" height="30" as="geometry" />
        </mxCell>
        <mxCell id="Wxa58QXRY7GNk46uSiOk-16" value="" style="group" vertex="1" connectable="0" parent="1">
          <mxGeometry x="720" y="213.5" width="60" height="71" as="geometry" />
        </mxCell>
        <mxCell id="Wxa58QXRY7GNk46uSiOk-14" value="" style="shape=image;verticalLabelPosition=bottom;verticalAlign=top;imageAspect=0;aspect=fixed;image=data:image/svg+xml,PHN2ZyB4bWxucz0iaHR0cDovL3d3dy53My5vcmcvMjAwMC9zdmciIHZlcnNpb249IjEiIHZpZXdCb3g9IjAgMCA0OCA0OCIgZW5hYmxlLWJhY2tncm91bmQ9Im5ldyAwIDAgNDggNDgiPiYjeGE7ICAgIDxwb2x5Z29uIGZpbGw9IiM5MENBRjkiIHBvaW50cz0iNDAsNDUgOCw0NSA4LDMgMzAsMyA0MCwxMyIvPiYjeGE7ICAgIDxwb2x5Z29uIGZpbGw9IiNFMUY1RkUiIHBvaW50cz0iMzguNSwxNCAyOSwxNCAyOSw0LjUiLz4mI3hhOyAgICA8ZyBmaWxsPSIjMTk3NkQyIj4mI3hhOyAgICAgICAgPHJlY3QgeD0iMTYiIHk9IjIxIiB3aWR0aD0iMTciIGhlaWdodD0iMiIvPiYjeGE7ICAgICAgICA8cmVjdCB4PSIxNiIgeT0iMjUiIHdpZHRoPSIxMyIgaGVpZ2h0PSIyIi8+JiN4YTsgICAgICAgIDxyZWN0IHg9IjE2IiB5PSIyOSIgd2lkdGg9IjE3IiBoZWlnaHQ9IjIiLz4mI3hhOyAgICAgICAgPHJlY3QgeD0iMTYiIHk9IjMzIiB3aWR0aD0iMTMiIGhlaWdodD0iMiIvPiYjeGE7ICAgIDwvZz4mI3hhOzwvc3ZnPg==;" vertex="1" parent="Wxa58QXRY7GNk46uSiOk-16">
          <mxGeometry x="6" width="48" height="48" as="geometry" />
        </mxCell>
        <mxCell id="Wxa58QXRY7GNk46uSiOk-15" value="Report" style="text;strokeColor=none;align=center;fillColor=none;html=1;verticalAlign=middle;whiteSpace=wrap;rounded=0;" vertex="1" parent="Wxa58QXRY7GNk46uSiOk-16">
          <mxGeometry y="41" width="60" height="30" as="geometry" />
        </mxCell>
        <mxCell id="Wxa58QXRY7GNk46uSiOk-18" value="" style="group" vertex="1" connectable="0" parent="1">
          <mxGeometry x="609" y="110" width="50" height="72" as="geometry" />
        </mxCell>
        <mxCell id="Wxa58QXRY7GNk46uSiOk-10" value="" style="shape=image;verticalLabelPosition=bottom;verticalAlign=top;imageAspect=0;aspect=fixed;image=data:image/svg+xml,PHN2ZyB4bWxucz0iaHR0cDovL3d3dy53My5vcmcvMjAwMC9zdmciIHZlcnNpb249IjEiIHZpZXdCb3g9IjAgMCA0OCA0OCIgZW5hYmxlLWJhY2tncm91bmQ9Im5ldyAwIDAgNDggNDgiPiYjeGE7ICAgIDxwYXRoIGZpbGw9IiNGRjU3MjIiIGQ9Ik0zMiwxNXYyOEgxMGMtMi4yLDAtNC0xLjgtNC00VjE1SDMyeiIvPiYjeGE7ICAgIDxwYXRoIGZpbGw9IiNGRkNDQkMiIGQ9Ik0xNCw1djM0YzAsMi4yLTEuOCw0LTQsNGgyOWMyLjIsMCw0LTEuOCw0LTRWNUgxNHoiLz4mI3hhOyAgICA8ZyBmaWxsPSIjRkY1NzIyIj4mI3hhOyAgICAgICAgPHJlY3QgeD0iMjAiIHk9IjEwIiB3aWR0aD0iMTgiIGhlaWdodD0iNCIvPiYjeGE7ICAgICAgICA8cmVjdCB4PSIyMCIgeT0iMTciIHdpZHRoPSI4IiBoZWlnaHQ9IjIiLz4mI3hhOyAgICAgICAgPHJlY3QgeD0iMzAiIHk9IjE3IiB3aWR0aD0iOCIgaGVpZ2h0PSIyIi8+JiN4YTsgICAgICAgIDxyZWN0IHg9IjIwIiB5PSIyMSIgd2lkdGg9IjgiIGhlaWdodD0iMiIvPiYjeGE7ICAgICAgICA8cmVjdCB4PSIzMCIgeT0iMjEiIHdpZHRoPSI4IiBoZWlnaHQ9IjIiLz4mI3hhOyAgICAgICAgPHJlY3QgeD0iMjAiIHk9IjI1IiB3aWR0aD0iOCIgaGVpZ2h0PSIyIi8+JiN4YTsgICAgICAgIDxyZWN0IHg9IjMwIiB5PSIyNSIgd2lkdGg9IjgiIGhlaWdodD0iMiIvPiYjeGE7ICAgICAgICA8cmVjdCB4PSIyMCIgeT0iMjkiIHdpZHRoPSI4IiBoZWlnaHQ9IjIiLz4mI3hhOyAgICAgICAgPHJlY3QgeD0iMzAiIHk9IjI5IiB3aWR0aD0iOCIgaGVpZ2h0PSIyIi8+JiN4YTsgICAgICAgIDxyZWN0IHg9IjIwIiB5PSIzMyIgd2lkdGg9IjgiIGhlaWdodD0iMiIvPiYjeGE7ICAgICAgICA8cmVjdCB4PSIzMCIgeT0iMzMiIHdpZHRoPSI4IiBoZWlnaHQ9IjIiLz4mI3hhOyAgICAgICAgPHJlY3QgeD0iMjAiIHk9IjM3IiB3aWR0aD0iOCIgaGVpZ2h0PSIyIi8+JiN4YTsgICAgICAgIDxyZWN0IHg9IjMwIiB5PSIzNyIgd2lkdGg9IjgiIGhlaWdodD0iMiIvPiYjeGE7ICAgIDwvZz4mI3hhOzwvc3ZnPg==;" vertex="1" parent="Wxa58QXRY7GNk46uSiOk-18">
          <mxGeometry width="48" height="48" as="geometry" />
        </mxCell>
        <mxCell id="Wxa58QXRY7GNk46uSiOk-17" value="List" style="text;strokeColor=none;align=center;fillColor=none;html=1;verticalAlign=middle;whiteSpace=wrap;rounded=0;" vertex="1" parent="Wxa58QXRY7GNk46uSiOk-18">
          <mxGeometry y="42" width="50" height="30" as="geometry" />
        </mxCell>
        <mxCell id="Wxa58QXRY7GNk46uSiOk-20" value="" style="group" vertex="1" connectable="0" parent="1">
          <mxGeometry x="750" y="50" width="60" height="78" as="geometry" />
        </mxCell>
        <mxCell id="Wxa58QXRY7GNk46uSiOk-11" value="" style="shape=image;verticalLabelPosition=bottom;verticalAlign=top;imageAspect=0;aspect=fixed;image=data:image/svg+xml,PHN2ZyB4bWxucz0iaHR0cDovL3d3dy53My5vcmcvMjAwMC9zdmciIHZlcnNpb249IjEiIHZpZXdCb3g9IjAgMCA0OCA0OCIgZW5hYmxlLWJhY2tncm91bmQ9Im5ldyAwIDAgNDggNDgiPiYjeGE7ICAgIDxwYXRoIGZpbGw9IiM3Q0IzNDIiIGQ9Ik0yNCw0QzEzLDQsNCwxMyw0LDI0czksMjAsMjAsMjBzMjAtOSwyMC0yMFMzNSw0LDI0LDR6Ii8+JiN4YTsgICAgPHBhdGggZmlsbD0iIzAyNzdCRCIgZD0iTTQ1LDI0YzAsMTEuNy05LjUsMjEtMjEsMjFTMywzNS43LDMsMjRTMTIuMywzLDI0LDNTNDUsMTIuMyw0NSwyNHogTTIzLjgsMzMuN2MwLTAuNC0wLjItMC42LTAuNi0wLjggYy0xLjMtMC40LTIuNS0wLjQtMy42LTEuNWMtMC4yLTAuNC0wLjItMC44LTAuNC0xLjNjLTAuNC0wLjQtMS41LTAuNi0yLjEtMC44Yy0wLjgsMC0xLjcsMC0yLjcsMGMtMC40LDAtMS4xLDAtMS41LDAgYy0wLjYtMC4yLTEuMS0xLjEtMS41LTEuN2MwLTAuMiwwLTAuNi0wLjQtMC42Yy0wLjQtMC4yLTAuOCwwLjItMS4zLDBjLTAuMi0wLjItMC4yLTAuNC0wLjItMC42YzAtMC42LDAuNC0xLjMsMC44LTEuNyBjMC42LTAuNCwxLjMsMC4yLDEuOSwwLjJjMC4yLDAsMC4yLDAsMC40LDAuMmMwLjYsMC4yLDAuOCwxLDAuOCwxLjdjMCwwLjIsMCwwLjQsMCwwLjRjMCwwLjIsMC4yLDAuMiwwLjQsMC4yIGMwLjItMS4xLDAuMi0yLjEsMC40LTMuMmMwLTEuMywxLjMtMi41LDIuMy0yLjljMC40LTAuMiwwLjYsMC4yLDEuMSwwYzEuMy0wLjQsNC40LTEuNywzLjgtMy40Yy0wLjQtMS41LTEuNy0yLjktMy40LTIuNyBjLTAuNCwwLjItMC42LDAuNC0xLDAuNmMtMC42LDAuNC0xLjksMS43LTIuNSwxLjdjLTEuMS0wLjItMS4xLTEuNy0wLjgtMi4zYzAuMi0wLjgsMi4xLTMuNiwzLjQtMy4xYzAuMiwwLjIsMC42LDAuNiwwLjgsMC44IGMwLjQsMC4yLDEuMSwwLjIsMS43LDAuMmMwLjIsMCwwLjQsMCwwLjYtMC4yYzAuMi0wLjIsMC4yLTAuMiwwLjItMC40YzAtMC42LTAuNi0xLjMtMS0xLjdjLTAuNC0wLjQtMS4xLTAuOC0xLjctMS4xIGMtMi4xLTAuNi01LjUsMC4yLTcuMSwxLjdzLTIuOSw0LTMuOCw2LjFjLTAuNCwxLjMtMC44LDIuOS0xLDQuNGMtMC4yLDEtMC40LDEuOSwwLjIsMi45YzAuNiwxLjMsMS45LDIuNSwzLjIsMy40IGMwLjgsMC42LDIuNSwwLjYsMy40LDEuN2MwLjYsMC44LDAuNCwxLjksMC40LDIuOWMwLDEuMywwLjgsMi4zLDEuMywzLjRjMC4yLDAuNiwwLjQsMS41LDAuNiwyLjFjMCwwLjIsMC4yLDEuNSwwLjIsMS43IGMxLjMsMC42LDIuMywxLjMsMy44LDEuN2MwLjIsMCwxLTEuMywxLTEuNWMwLjYtMC42LDEuMS0xLjUsMS43LTEuOWMwLjQtMC4yLDAuOC0wLjQsMS4zLTAuOGMwLjQtMC40LDAuNi0xLjMsMC44LTEuOSBDMjMuOCwzNS4xLDI0LDM0LjMsMjMuOCwzMy43eiBNMjQuMiwxNC4zYzAuMiwwLDAuNC0wLjIsMC44LTAuNGMwLjYtMC40LDEuMy0xLjEsMS45LTEuNWMwLjYtMC40LDEuMy0xLjEsMS43LTEuNSBjMC42LTAuNCwxLjEtMS4zLDEuMy0xLjljMC4yLTAuNCwwLjgtMS4zLDAuNi0xLjljLTAuMi0wLjQtMS4zLTAuNi0xLjctMC44Yy0xLjctMC40LTMuMS0wLjYtNC44LTAuNmMtMC42LDAtMS41LDAuMi0xLjcsMC44IGMtMC4yLDEuMSwwLjYsMC44LDEuNSwxLjFjMCwwLDAuMiwxLjcsMC4yLDEuOWMwLjIsMS0wLjQsMS43LTAuNCwyLjdjMCwwLjYsMCwxLjcsMC40LDIuMUwyNC4yLDE0LjN6IE00MS44LDI5IGMwLjItMC40LDAuMi0xLjEsMC40LTEuNWMwLjItMSwwLjItMi4xLDAuMi0zLjFjMC0yLjEtMC4yLTQuMi0wLjgtNi4xYy0wLjQtMC42LTAuNi0xLjMtMC44LTEuOWMtMC40LTEuMS0xLTIuMS0xLjktMi45IGMtMC44LTEuMS0xLjktNC0zLjgtMy4xYy0wLjYsMC4yLTEsMS0xLjUsMS41Yy0wLjQsMC42LTAuOCwxLjMtMS4zLDEuOWMtMC4yLDAuMi0wLjQsMC42LTAuMiwwLjhjMCwwLjIsMC4yLDAuMiwwLjQsMC4yIGMwLjQsMC4yLDAuNiwwLjIsMSwwLjRjMC4yLDAsMC40LDAuMiwwLjIsMC40YzAsMCwwLDAuMi0wLjIsMC4yYy0xLDEuMS0yLjEsMS45LTMuMSwyLjljLTAuMiwwLjItMC40LDAuNi0wLjQsMC44IGMwLDAuMiwwLjIsMC4yLDAuMiwwLjRjMCwwLjItMC4yLDAuMi0wLjQsMC40Yy0wLjQsMC4yLTAuOCwwLjQtMS4xLDAuNmMtMC4yLDAuNCwwLDEuMS0wLjIsMS41Yy0wLjIsMS4xLTAuOCwxLjktMS4zLDIuOSBjLTAuNCwwLjYtMC42LDEuMy0xLDEuOWMwLDAuOC0wLjIsMS41LDAuMiwyLjFjMSwxLjUsMi45LDAuNiw0LjQsMS4zYzAuNCwwLjIsMC44LDAuMiwxLjEsMC42YzAuNiwwLjYsMC42LDEuNywwLjgsMi4zIGMwLjIsMC44LDAuNCwxLjcsMC44LDIuNWMwLjIsMSwwLjYsMi4xLDAuOCwyLjljMS45LTEuNSwzLjYtMy4xLDQuOC01LjJDNDAuNiwzMi40LDQxLjIsMzAuNyw0MS44LDI5eiIvPiYjeGE7PC9zdmc+;" vertex="1" parent="Wxa58QXRY7GNk46uSiOk-20">
          <mxGeometry x="6" width="48" height="48" as="geometry" />
        </mxCell>
        <mxCell id="Wxa58QXRY7GNk46uSiOk-19" value="NGO" style="text;strokeColor=none;align=center;fillColor=none;html=1;verticalAlign=middle;whiteSpace=wrap;rounded=0;" vertex="1" parent="Wxa58QXRY7GNk46uSiOk-20">
          <mxGeometry y="48" width="60" height="30" as="geometry" />
        </mxCell>
        <mxCell id="Wxa58QXRY7GNk46uSiOk-22" value="" style="group" vertex="1" connectable="0" parent="1">
          <mxGeometry x="218" y="537" width="60" height="70" as="geometry" />
        </mxCell>
        <mxCell id="Wxa58QXRY7GNk46uSiOk-9" value="" style="shape=image;verticalLabelPosition=bottom;verticalAlign=top;imageAspect=0;aspect=fixed;image=data:image/svg+xml,PHN2ZyB4bWxucz0iaHR0cDovL3d3dy53My5vcmcvMjAwMC9zdmciIHZlcnNpb249IjEiIHZpZXdCb3g9IjAgMCA0OCA0OCIgZW5hYmxlLWJhY2tncm91bmQ9Im5ldyAwIDAgNDggNDgiPiYjeGE7ICAgIDxwYXRoIGZpbGw9IiM3ODkwOUMiIGQ9Ik00MCw0MUg4Yy0yLjIsMC00LTEuOC00LTRsMC0yMC45YzAtMS4zLDAuNi0yLjUsMS43LTMuM0wyNCwwbDE4LjMsMTIuOGMxLjEsMC43LDEuNywyLDEuNywzLjNWMzcgQzQ0LDM5LjIsNDIuMiw0MSw0MCw0MXoiLz4mI3hhOyAgICA8cmVjdCB4PSIxNCIgeT0iMSIgZmlsbD0iI0FFRDU4MSIgd2lkdGg9IjIwIiBoZWlnaHQ9IjMxIi8+JiN4YTsgICAgPGcgZmlsbD0iIzU1OEIyRiI+JiN4YTsgICAgICAgIDxwYXRoIGQ9Ik0xMywwdjMzaDIyVjBIMTN6IE0zMywzMUgxNVYyaDE4VjMxeiIvPiYjeGE7ICAgICAgICA8cGF0aCBkPSJNMzQsM2MwLDEuNy0wLjMsMy0yLDNjLTEuNywwLTMtMS4zLTMtM3MxLjMtMiwzLTJDMzMuNywxLDM0LDEuMywzNCwzeiIvPiYjeGE7ICAgICAgICA8cGF0aCBkPSJNMTYsMWMxLjcsMCwzLDAuMywzLDJzLTEuMywzLTMsM3MtMi0xLjMtMi0zUzE0LjMsMSwxNiwxeiIvPiYjeGE7ICAgICAgICA8Y2lyY2xlIGN4PSIyNCIgY3k9IjgiIHI9IjIiLz4mI3hhOyAgICAgICAgPGNpcmNsZSBjeD0iMjQiIGN5PSIyMCIgcj0iNiIvPiYjeGE7ICAgIDwvZz4mI3hhOyAgICA8cGF0aCBmaWxsPSIjQ0ZEOERDIiBkPSJNNDAsNDFIOGMtMi4yLDAtNC0xLjgtNC00bDAtMjBsMjAsMTNsMjAtMTN2MjBDNDQsMzkuMiw0Mi4yLDQxLDQwLDQxeiIvPiYjeGE7PC9zdmc+;" vertex="1" parent="Wxa58QXRY7GNk46uSiOk-22">
          <mxGeometry x="6" width="48" height="48" as="geometry" />
        </mxCell>
        <mxCell id="Wxa58QXRY7GNk46uSiOk-21" value="Money" style="text;strokeColor=none;align=center;fillColor=none;html=1;verticalAlign=middle;whiteSpace=wrap;rounded=0;" vertex="1" parent="Wxa58QXRY7GNk46uSiOk-22">
          <mxGeometry y="40" width="60" height="30" as="geometry" />
        </mxCell>
        <mxCell id="Wxa58QXRY7GNk46uSiOk-24" value="" style="group" vertex="1" connectable="0" parent="1">
          <mxGeometry x="450" y="40" width="60" height="78" as="geometry" />
        </mxCell>
        <mxCell id="Wxa58QXRY7GNk46uSiOk-7" value="" style="shape=image;verticalLabelPosition=bottom;verticalAlign=top;imageAspect=0;aspect=fixed;image=data:image/svg+xml,PHN2ZyB4bWxucz0iaHR0cDovL3d3dy53My5vcmcvMjAwMC9zdmciIHZlcnNpb249IjEiIHZpZXdCb3g9IjAgMCA0OCA0OCIgZW5hYmxlLWJhY2tncm91bmQ9Im5ldyAwIDAgNDggNDgiPiYjeGE7ICAgIDxwYXRoIGZpbGw9IiM5MENBRjkiIGQ9Ik00Miw0Mkg2VjEwYzAtMi4yLDEuOC00LDQtNGgyOGMyLjIsMCw0LDEuOCw0LDRWNDJ6Ii8+JiN4YTsgICAgPHJlY3QgeD0iNiIgeT0iNDIiIGZpbGw9IiM2NEI1RjYiIHdpZHRoPSIzNiIgaGVpZ2h0PSIyIi8+JiN4YTsgICAgPGcgZmlsbD0iIzE1NjVDMCI+JiN4YTsgICAgICAgIDxyZWN0IHg9IjMxIiB5PSIyNyIgd2lkdGg9IjYiIGhlaWdodD0iNSIvPiYjeGE7ICAgICAgICA8cmVjdCB4PSIyMSIgeT0iMjciIHdpZHRoPSI2IiBoZWlnaHQ9IjUiLz4mI3hhOyAgICAgICAgPHJlY3QgeD0iMTEiIHk9IjI3IiB3aWR0aD0iNiIgaGVpZ2h0PSI1Ii8+JiN4YTsgICAgICAgIDxyZWN0IHg9IjMxIiB5PSIzNSIgd2lkdGg9IjYiIGhlaWdodD0iNSIvPiYjeGE7ICAgICAgICA8cmVjdCB4PSIxMSIgeT0iMzUiIHdpZHRoPSI2IiBoZWlnaHQ9IjUiLz4mI3hhOyAgICAgICAgPHJlY3QgeD0iMzEiIHk9IjE5IiB3aWR0aD0iNiIgaGVpZ2h0PSI1Ii8+JiN4YTsgICAgICAgIDxyZWN0IHg9IjIxIiB5PSIxOSIgd2lkdGg9IjYiIGhlaWdodD0iNSIvPiYjeGE7ICAgICAgICA8cmVjdCB4PSIxMSIgeT0iMTkiIHdpZHRoPSI2IiBoZWlnaHQ9IjUiLz4mI3hhOyAgICAgICAgPHJlY3QgeD0iMzEiIHk9IjExIiB3aWR0aD0iNiIgaGVpZ2h0PSI1Ii8+JiN4YTsgICAgICAgIDxyZWN0IHg9IjIxIiB5PSIxMSIgd2lkdGg9IjYiIGhlaWdodD0iNSIvPiYjeGE7ICAgICAgICA8cmVjdCB4PSIxMSIgeT0iMTEiIHdpZHRoPSI2IiBoZWlnaHQ9IjUiLz4mI3hhOyAgICAgICAgPHJlY3QgeD0iMjEiIHk9IjM1IiB3aWR0aD0iNiIgaGVpZ2h0PSI5Ii8+JiN4YTsgICAgPC9nPiYjeGE7PC9zdmc+;" vertex="1" parent="Wxa58QXRY7GNk46uSiOk-24">
          <mxGeometry x="6" width="48" height="48" as="geometry" />
        </mxCell>
        <mxCell id="Wxa58QXRY7GNk46uSiOk-23" value="Company" style="text;strokeColor=none;align=center;fillColor=none;html=1;verticalAlign=middle;whiteSpace=wrap;rounded=0;" vertex="1" parent="Wxa58QXRY7GNk46uSiOk-24">
          <mxGeometry y="48" width="60" height="30" as="geometry" />
        </mxCell>
        <mxCell id="Wxa58QXRY7GNk46uSiOk-27" value="" style="group" vertex="1" connectable="0" parent="1">
          <mxGeometry x="210" y="362" width="60" height="83" as="geometry" />
        </mxCell>
        <mxCell id="Wxa58QXRY7GNk46uSiOk-13" value="" style="shape=image;verticalLabelPosition=bottom;verticalAlign=top;imageAspect=0;aspect=fixed;image=data:image/svg+xml,PHN2ZyB4bWxucz0iaHR0cDovL3d3dy53My5vcmcvMjAwMC9zdmciIHZlcnNpb249IjEiIHZpZXdCb3g9IjAgMCA0OCA0OCIgZW5hYmxlLWJhY2tncm91bmQ9Im5ldyAwIDAgNDggNDgiPiYjeGE7ICAgIDxwYXRoIGZpbGw9IiNGRjcwNDMiIGQ9Ik0zOCw0NEgxMlY0aDI2YzIuMiwwLDQsMS44LDQsNHYzMkM0Miw0Mi4yLDQwLjIsNDQsMzgsNDR6Ii8+JiN4YTsgICAgPHBhdGggZmlsbD0iI0JGMzYwQyIgZD0iTTEwLDRoMnY0MGgtMmMtMi4yLDAtNC0xLjgtNC00VjhDNiw1LjgsNy44LDQsMTAsNHoiLz4mI3hhOyAgICA8ZyBmaWxsPSIjQUIzMDBCIj4mI3hhOyAgICAgICAgPGNpcmNsZSBjeD0iMjYiIGN5PSIyMCIgcj0iNCIvPiYjeGE7ICAgICAgICA8cGF0aCBkPSJNMzMsMzBjMCwwLTEuOS00LTctNGMtNS4xLDAtNyw0LTcsNHYyaDE0VjMweiIvPiYjeGE7ICAgIDwvZz4mI3hhOzwvc3ZnPg==;" vertex="1" parent="Wxa58QXRY7GNk46uSiOk-27">
          <mxGeometry x="6" width="48" height="48" as="geometry" />
        </mxCell>
        <mxCell id="Wxa58QXRY7GNk46uSiOk-25" value="Random List" style="text;strokeColor=none;align=center;fillColor=none;html=1;verticalAlign=middle;whiteSpace=wrap;rounded=0;" vertex="1" parent="Wxa58QXRY7GNk46uSiOk-27">
          <mxGeometry y="53" width="60" height="30" as="geometry" />
        </mxCell>
        <mxCell id="Wxa58QXRY7GNk46uSiOk-29" value="" style="group" vertex="1" connectable="0" parent="1">
          <mxGeometry x="846" y="213.5" width="60" height="78" as="geometry" />
        </mxCell>
        <mxCell id="Wxa58QXRY7GNk46uSiOk-6" value="" style="shape=image;verticalLabelPosition=bottom;verticalAlign=top;imageAspect=0;aspect=fixed;image=data:image/svg+xml,PHN2ZyB4bWxucz0iaHR0cDovL3d3dy53My5vcmcvMjAwMC9zdmciIHZlcnNpb249IjEiIHZpZXdCb3g9IjAgMCA0OCA0OCIgZW5hYmxlLWJhY2tncm91bmQ9Im5ldyAwIDAgNDggNDgiPiYjeGE7ICAgIDxwb2x5Z29uIGZpbGw9IiNDNUNBRTkiIHBvaW50cz0iNDIsNDIgNiw0MiA2LDkgMjQsMiA0Miw5Ii8+JiN4YTsgICAgPHJlY3QgeD0iNiIgeT0iNDIiIGZpbGw9IiM5RkE4REEiIHdpZHRoPSIzNiIgaGVpZ2h0PSIyIi8+JiN4YTsgICAgPHJlY3QgeD0iMjAiIHk9IjM1IiBmaWxsPSIjQkYzNjBDIiB3aWR0aD0iOCIgaGVpZ2h0PSI5Ii8+JiN4YTsgICAgPGcgZmlsbD0iIzE1NjVDMCI+JiN4YTsgICAgICAgIDxyZWN0IHg9IjMxIiB5PSIyNyIgd2lkdGg9IjYiIGhlaWdodD0iNSIvPiYjeGE7ICAgICAgICA8cmVjdCB4PSIyMSIgeT0iMjciIHdpZHRoPSI2IiBoZWlnaHQ9IjUiLz4mI3hhOyAgICAgICAgPHJlY3QgeD0iMTEiIHk9IjI3IiB3aWR0aD0iNiIgaGVpZ2h0PSI1Ii8+JiN4YTsgICAgICAgIDxyZWN0IHg9IjMxIiB5PSIzNSIgd2lkdGg9IjYiIGhlaWdodD0iNSIvPiYjeGE7ICAgICAgICA8cmVjdCB4PSIxMSIgeT0iMzUiIHdpZHRoPSI2IiBoZWlnaHQ9IjUiLz4mI3hhOyAgICAgICAgPHJlY3QgeD0iMzEiIHk9IjE5IiB3aWR0aD0iNiIgaGVpZ2h0PSI1Ii8+JiN4YTsgICAgICAgIDxyZWN0IHg9IjIxIiB5PSIxOSIgd2lkdGg9IjYiIGhlaWdodD0iNSIvPiYjeGE7ICAgICAgICA8cmVjdCB4PSIxMSIgeT0iMTkiIHdpZHRoPSI2IiBoZWlnaHQ9IjUiLz4mI3hhOyAgICAgICAgPHJlY3QgeD0iMzEiIHk9IjExIiB3aWR0aD0iNiIgaGVpZ2h0PSI1Ii8+JiN4YTsgICAgICAgIDxyZWN0IHg9IjIxIiB5PSIxMSIgd2lkdGg9IjYiIGhlaWdodD0iNSIvPiYjeGE7ICAgICAgICA8cmVjdCB4PSIxMSIgeT0iMTEiIHdpZHRoPSI2IiBoZWlnaHQ9IjUiLz4mI3hhOyAgICA8L2c+JiN4YTs8L3N2Zz4=;" vertex="1" parent="Wxa58QXRY7GNk46uSiOk-29">
          <mxGeometry x="6" width="48" height="48" as="geometry" />
        </mxCell>
        <mxCell id="Wxa58QXRY7GNk46uSiOk-28" value="Finance Department" style="text;strokeColor=none;align=center;fillColor=none;html=1;verticalAlign=middle;whiteSpace=wrap;rounded=0;" vertex="1" parent="Wxa58QXRY7GNk46uSiOk-29">
          <mxGeometry y="48" width="60" height="30" as="geometry" />
        </mxCell>
        <mxCell id="Wxa58QXRY7GNk46uSiOk-33" value="" style="group" vertex="1" connectable="0" parent="1">
          <mxGeometry x="604" y="213.5" width="60" height="78" as="geometry" />
        </mxCell>
        <mxCell id="Wxa58QXRY7GNk46uSiOk-31" value="" style="shape=image;verticalLabelPosition=bottom;verticalAlign=top;imageAspect=0;aspect=fixed;image=data:image/svg+xml,PHN2ZyB4bWxucz0iaHR0cDovL3d3dy53My5vcmcvMjAwMC9zdmciIHZlcnNpb249IjEiIHZpZXdCb3g9IjAgMCA0OCA0OCIgZW5hYmxlLWJhY2tncm91bmQ9Im5ldyAwIDAgNDggNDgiPiYjeGE7ICAgIDxwb2x5Z29uIGZpbGw9IiNDNUNBRTkiIHBvaW50cz0iNDIsNDIgNiw0MiA2LDkgMjQsMiA0Miw5Ii8+JiN4YTsgICAgPHJlY3QgeD0iNiIgeT0iNDIiIGZpbGw9IiM5RkE4REEiIHdpZHRoPSIzNiIgaGVpZ2h0PSIyIi8+JiN4YTsgICAgPHJlY3QgeD0iMjAiIHk9IjM1IiBmaWxsPSIjQkYzNjBDIiB3aWR0aD0iOCIgaGVpZ2h0PSI5Ii8+JiN4YTsgICAgPGcgZmlsbD0iIzE1NjVDMCI+JiN4YTsgICAgICAgIDxyZWN0IHg9IjMxIiB5PSIyNyIgd2lkdGg9IjYiIGhlaWdodD0iNSIvPiYjeGE7ICAgICAgICA8cmVjdCB4PSIyMSIgeT0iMjciIHdpZHRoPSI2IiBoZWlnaHQ9IjUiLz4mI3hhOyAgICAgICAgPHJlY3QgeD0iMTEiIHk9IjI3IiB3aWR0aD0iNiIgaGVpZ2h0PSI1Ii8+JiN4YTsgICAgICAgIDxyZWN0IHg9IjMxIiB5PSIzNSIgd2lkdGg9IjYiIGhlaWdodD0iNSIvPiYjeGE7ICAgICAgICA8cmVjdCB4PSIxMSIgeT0iMzUiIHdpZHRoPSI2IiBoZWlnaHQ9IjUiLz4mI3hhOyAgICAgICAgPHJlY3QgeD0iMzEiIHk9IjE5IiB3aWR0aD0iNiIgaGVpZ2h0PSI1Ii8+JiN4YTsgICAgICAgIDxyZWN0IHg9IjIxIiB5PSIxOSIgd2lkdGg9IjYiIGhlaWdodD0iNSIvPiYjeGE7ICAgICAgICA8cmVjdCB4PSIxMSIgeT0iMTkiIHdpZHRoPSI2IiBoZWlnaHQ9IjUiLz4mI3hhOyAgICAgICAgPHJlY3QgeD0iMzEiIHk9IjExIiB3aWR0aD0iNiIgaGVpZ2h0PSI1Ii8+JiN4YTsgICAgICAgIDxyZWN0IHg9IjIxIiB5PSIxMSIgd2lkdGg9IjYiIGhlaWdodD0iNSIvPiYjeGE7ICAgICAgICA8cmVjdCB4PSIxMSIgeT0iMTEiIHdpZHRoPSI2IiBoZWlnaHQ9IjUiLz4mI3hhOyAgICA8L2c+JiN4YTs8L3N2Zz4=;" vertex="1" parent="Wxa58QXRY7GNk46uSiOk-33">
          <mxGeometry x="6" width="48" height="48" as="geometry" />
        </mxCell>
        <mxCell id="Wxa58QXRY7GNk46uSiOk-32" value="Sahal Hawala" style="text;strokeColor=none;align=center;fillColor=none;html=1;verticalAlign=middle;whiteSpace=wrap;rounded=0;" vertex="1" parent="Wxa58QXRY7GNk46uSiOk-33">
          <mxGeometry y="48" width="60" height="30" as="geometry" />
        </mxCell>
        <mxCell id="Wxa58QXRY7GNk46uSiOk-35" value="" style="group" vertex="1" connectable="0" parent="1">
          <mxGeometry x="970" y="70" width="60" height="68" as="geometry" />
        </mxCell>
        <mxCell id="Wxa58QXRY7GNk46uSiOk-30" value="" style="shape=image;verticalLabelPosition=bottom;verticalAlign=top;imageAspect=0;aspect=fixed;image=data:image/svg+xml,PHN2ZyB4bWxucz0iaHR0cDovL3d3dy53My5vcmcvMjAwMC9zdmciIHZlcnNpb249IjEiIHZpZXdCb3g9IjAgMCA0OCA0OCIgZW5hYmxlLWJhY2tncm91bmQ9Im5ldyAwIDAgNDggNDgiPiYjeGE7ICAgIDxnIGZpbGw9IiNGRjk4MDAiPiYjeGE7ICAgICAgICA8cmVjdCB4PSIxIiB5PSIzOCIgd2lkdGg9IjQ2IiBoZWlnaHQ9IjIiLz4mI3hhOyAgICAgICAgPHJlY3QgeD0iMjUiIHk9IjE4IiB3aWR0aD0iNCIgaGVpZ2h0PSIxNiIvPiYjeGE7ICAgICAgICA8cmVjdCB4PSIzMSIgeT0iMTgiIHdpZHRoPSI0IiBoZWlnaHQ9IjE2Ii8+JiN4YTsgICAgICAgIDxyZWN0IHg9IjM3IiB5PSIxOCIgd2lkdGg9IjQiIGhlaWdodD0iMTYiLz4mI3hhOyAgICAgICAgPHJlY3QgeD0iMTkiIHk9IjE4IiB3aWR0aD0iNCIgaGVpZ2h0PSIxNiIvPiYjeGE7ICAgICAgICA8cmVjdCB4PSIxMyIgeT0iMTgiIHdpZHRoPSI0IiBoZWlnaHQ9IjE2Ii8+JiN4YTsgICAgICAgIDxyZWN0IHg9IjciIHk9IjE4IiB3aWR0aD0iNCIgaGVpZ2h0PSIxNiIvPiYjeGE7ICAgICAgICA8cG9seWdvbiBwb2ludHM9IjQzLDE2IDUsMTYgNSwxMyAyNCw0IDQzLDEzIi8+JiN4YTsgICAgICAgIDxyZWN0IHg9IjUiIHk9IjM0IiB3aWR0aD0iMzgiIGhlaWdodD0iMiIvPiYjeGE7ICAgIDwvZz4mI3hhOyAgICA8ZyBmaWxsPSIjRUY2QzAwIj4mI3hhOyAgICAgICAgPHJlY3QgeD0iMjUiIHk9IjE2IiB3aWR0aD0iNCIgaGVpZ2h0PSIyIi8+JiN4YTsgICAgICAgIDxyZWN0IHg9IjMxIiB5PSIxNiIgd2lkdGg9IjQiIGhlaWdodD0iMiIvPiYjeGE7ICAgICAgICA8cmVjdCB4PSIzNyIgeT0iMTYiIHdpZHRoPSI0IiBoZWlnaHQ9IjIiLz4mI3hhOyAgICAgICAgPHJlY3QgeD0iMTkiIHk9IjE2IiB3aWR0aD0iNCIgaGVpZ2h0PSIyIi8+JiN4YTsgICAgICAgIDxyZWN0IHg9IjEzIiB5PSIxNiIgd2lkdGg9IjQiIGhlaWdodD0iMiIvPiYjeGE7ICAgICAgICA8cmVjdCB4PSI3IiB5PSIxNiIgd2lkdGg9IjQiIGhlaWdodD0iMiIvPiYjeGE7ICAgICAgICA8cmVjdCB4PSIzIiB5PSIzNiIgd2lkdGg9IjQyIiBoZWlnaHQ9IjIiLz4mI3hhOyAgICAgICAgPGNpcmNsZSBjeD0iMjQiIGN5PSIxMSIgcj0iMiIvPiYjeGE7ICAgIDwvZz4mI3hhOzwvc3ZnPg==;" vertex="1" parent="Wxa58QXRY7GNk46uSiOk-35">
          <mxGeometry x="6" width="48" height="48" as="geometry" />
        </mxCell>
        <mxCell id="Wxa58QXRY7GNk46uSiOk-34" value="Regulator" style="text;strokeColor=none;align=center;fillColor=none;html=1;verticalAlign=middle;whiteSpace=wrap;rounded=0;" vertex="1" parent="Wxa58QXRY7GNk46uSiOk-35">
          <mxGeometry y="38" width="60" height="30" as="geometry" />
        </mxCell>
        <mxCell id="Wxa58QXRY7GNk46uSiOk-36" value="" style="group" vertex="1" connectable="0" parent="1">
          <mxGeometry x="928" y="537" width="60" height="70" as="geometry" />
        </mxCell>
        <mxCell id="Wxa58QXRY7GNk46uSiOk-37" value="" style="shape=image;verticalLabelPosition=bottom;verticalAlign=top;imageAspect=0;aspect=fixed;image=data:image/svg+xml,PHN2ZyB4bWxucz0iaHR0cDovL3d3dy53My5vcmcvMjAwMC9zdmciIHZlcnNpb249IjEiIHZpZXdCb3g9IjAgMCA0OCA0OCIgZW5hYmxlLWJhY2tncm91bmQ9Im5ldyAwIDAgNDggNDgiPiYjeGE7ICAgIDxwYXRoIGZpbGw9IiM3ODkwOUMiIGQ9Ik00MCw0MUg4Yy0yLjIsMC00LTEuOC00LTRsMC0yMC45YzAtMS4zLDAuNi0yLjUsMS43LTMuM0wyNCwwbDE4LjMsMTIuOGMxLjEsMC43LDEuNywyLDEuNywzLjNWMzcgQzQ0LDM5LjIsNDIuMiw0MSw0MCw0MXoiLz4mI3hhOyAgICA8cmVjdCB4PSIxNCIgeT0iMSIgZmlsbD0iI0FFRDU4MSIgd2lkdGg9IjIwIiBoZWlnaHQ9IjMxIi8+JiN4YTsgICAgPGcgZmlsbD0iIzU1OEIyRiI+JiN4YTsgICAgICAgIDxwYXRoIGQ9Ik0xMywwdjMzaDIyVjBIMTN6IE0zMywzMUgxNVYyaDE4VjMxeiIvPiYjeGE7ICAgICAgICA8cGF0aCBkPSJNMzQsM2MwLDEuNy0wLjMsMy0yLDNjLTEuNywwLTMtMS4zLTMtM3MxLjMtMiwzLTJDMzMuNywxLDM0LDEuMywzNCwzeiIvPiYjeGE7ICAgICAgICA8cGF0aCBkPSJNMTYsMWMxLjcsMCwzLDAuMywzLDJzLTEuMywzLTMsM3MtMi0xLjMtMi0zUzE0LjMsMSwxNiwxeiIvPiYjeGE7ICAgICAgICA8Y2lyY2xlIGN4PSIyNCIgY3k9IjgiIHI9IjIiLz4mI3hhOyAgICAgICAgPGNpcmNsZSBjeD0iMjQiIGN5PSIyMCIgcj0iNiIvPiYjeGE7ICAgIDwvZz4mI3hhOyAgICA8cGF0aCBmaWxsPSIjQ0ZEOERDIiBkPSJNNDAsNDFIOGMtMi4yLDAtNC0xLjgtNC00bDAtMjBsMjAsMTNsMjAtMTN2MjBDNDQsMzkuMiw0Mi4yLDQxLDQwLDQxeiIvPiYjeGE7PC9zdmc+;" vertex="1" parent="Wxa58QXRY7GNk46uSiOk-36">
          <mxGeometry x="6" width="48" height="48" as="geometry" />
        </mxCell>
        <mxCell id="Wxa58QXRY7GNk46uSiOk-38" value="Money" style="text;strokeColor=none;align=center;fillColor=none;html=1;verticalAlign=middle;whiteSpace=wrap;rounded=0;" vertex="1" parent="Wxa58QXRY7GNk46uSiOk-36">
          <mxGeometry y="40" width="60" height="30" as="geometry" />
        </mxCell>
        <mxCell id="Wxa58QXRY7GNk46uSiOk-39" value="Agent" style="shape=image;verticalLabelPosition=bottom;verticalAlign=top;imageAspect=0;aspect=fixed;image=data:image/svg+xml,PHN2ZyB4bWxucz0iaHR0cDovL3d3dy53My5vcmcvMjAwMC9zdmciIHZlcnNpb249IjEiIHZpZXdCb3g9IjAgMCA0OCA0OCIgZW5hYmxlLWJhY2tncm91bmQ9Im5ldyAwIDAgNDggNDgiPiYjeGE7ICAgIDxwb2x5Z29uIGZpbGw9IiNGRjk4MDAiIHBvaW50cz0iMjQsMzcgMTksMzEgMTksMjUgMjksMjUgMjksMzEiLz4mI3hhOyAgICA8ZyBmaWxsPSIjRkZBNzI2Ij4mI3hhOyAgICAgICAgPGNpcmNsZSBjeD0iMzMiIGN5PSIxOSIgcj0iMiIvPiYjeGE7ICAgICAgICA8Y2lyY2xlIGN4PSIxNSIgY3k9IjE5IiByPSIyIi8+JiN4YTsgICAgPC9nPiYjeGE7ICAgIDxwYXRoIGZpbGw9IiNGRkI3NEQiIGQ9Ik0zMywxM2MwLTcuNi0xOC01LTE4LDBjMCwxLjEsMCw1LjksMCw3YzAsNSw0LDksOSw5czktNCw5LTlDMzMsMTguOSwzMywxNC4xLDMzLDEzeiIvPiYjeGE7ICAgIDxwYXRoIGZpbGw9IiM0MjQyNDIiIGQ9Ik0yNCw0Yy02LjEsMC0xMCw0LjktMTAsMTFjMCwwLjgsMCwyLjMsMCwyLjNsMiwxLjd2LTVsMTItNGw0LDR2NWwyLTEuN2MwLDAsMC0xLjUsMC0yLjNjMC00LTEtOC02LTlsLTEtMiBIMjR6Ii8+JiN4YTsgICAgPGcgZmlsbD0iIzc4NDcxOSI+JiN4YTsgICAgICAgIDxjaXJjbGUgY3g9IjI4IiBjeT0iMTkiIHI9IjEiLz4mI3hhOyAgICAgICAgPGNpcmNsZSBjeD0iMjAiIGN5PSIxOSIgcj0iMSIvPiYjeGE7ICAgIDwvZz4mI3hhOyAgICA8cG9seWdvbiBmaWxsPSIjZmZmIiBwb2ludHM9IjI0LDQzIDE5LDMxIDI0LDMyIDI5LDMxIi8+JiN4YTsgICAgPHBvbHlnb24gZmlsbD0iI0QzMkYyRiIgcG9pbnRzPSIyMywzNSAyMi4zLDM5LjUgMjQsNDMuNSAyNS43LDM5LjUgMjUsMzUgMjYsMzQgMjQsMzIgMjIsMzQiLz4mI3hhOyAgICA8cGF0aCBmaWxsPSIjNTQ2RTdBIiBkPSJNMjksMzFMMjksMzFsLTUsMTJsLTUtMTJjMCwwLTExLDItMTEsMTNoMzJDNDAsMzMsMjksMzEsMjksMzF6Ii8+JiN4YTs8L3N2Zz4=;labelBackgroundColor=#ffffff;" vertex="1" parent="1">
          <mxGeometry x="852" y="537" width="48" height="48" as="geometry" />
        </mxCell>
        <mxCell id="Wxa58QXRY7GNk46uSiOk-43" value="" style="group" vertex="1" connectable="0" parent="1">
          <mxGeometry x="670" y="360" width="60" height="78" as="geometry" />
        </mxCell>
        <mxCell id="Wxa58QXRY7GNk46uSiOk-41" value="" style="shape=image;verticalLabelPosition=bottom;verticalAlign=top;imageAspect=0;aspect=fixed;image=data:image/svg+xml,PHN2ZyB4bWxucz0iaHR0cDovL3d3dy53My5vcmcvMjAwMC9zdmciIHZlcnNpb249IjEiIHZpZXdCb3g9IjAgMCA0OCA0OCIgZW5hYmxlLWJhY2tncm91bmQ9Im5ldyAwIDAgNDggNDgiPiYjeGE7ICAgIDxwYXRoIGZpbGw9IiM0NTVBNjQiIGQ9Ik0zNiw0SDI2YzAsMS4xLTAuOSwyLTIsMnMtMi0wLjktMi0ySDEyQzkuOCw0LDgsNS44LDgsOHYzMmMwLDIuMiwxLjgsNCw0LDRoMjRjMi4yLDAsNC0xLjgsNC00VjggQzQwLDUuOCwzOC4yLDQsMzYsNHoiLz4mI3hhOyAgICA8cGF0aCBmaWxsPSIjZmZmIiBkPSJNMzYsNDFIMTJjLTAuNiwwLTEtMC40LTEtMVY4YzAtMC42LDAuNC0xLDEtMWgyNGMwLjYsMCwxLDAuNCwxLDF2MzJDMzcsNDAuNiwzNi42LDQxLDM2LDQxeiIvPiYjeGE7ICAgIDxnIGZpbGw9IiM5MEE0QUUiPiYjeGE7ICAgICAgICA8cGF0aCBkPSJNMjYsNGMwLDEuMS0wLjksMi0yLDJzLTItMC45LTItMmgtN3Y0YzAsMS4xLDAuOSwyLDIsMmgxNGMxLjEsMCwyLTAuOSwyLTJWNEgyNnoiLz4mI3hhOyAgICAgICAgPHBhdGggZD0iTTI0LDBjLTIuMiwwLTQsMS44LTQsNHMxLjgsNCw0LDRzNC0xLjgsNC00UzI2LjIsMCwyNCwweiBNMjQsNmMtMS4xLDAtMi0wLjktMi0yczAuOS0yLDItMnMyLDAuOSwyLDIgUzI1LjEsNiwyNCw2eiIvPiYjeGE7ICAgIDwvZz4mI3hhOyAgICA8ZyBmaWxsPSIjQ0ZEOERDIj4mI3hhOyAgICAgICAgPHJlY3QgeD0iMjEiIHk9IjIwIiB3aWR0aD0iMTIiIGhlaWdodD0iMiIvPiYjeGE7ICAgICAgICA8cmVjdCB4PSIxNSIgeT0iMTkiIHdpZHRoPSI0IiBoZWlnaHQ9IjQiLz4mI3hhOyAgICA8L2c+JiN4YTsgICAgPGcgZmlsbD0iIzAzQTlGNCI+JiN4YTsgICAgICAgIDxyZWN0IHg9IjIxIiB5PSIyOSIgd2lkdGg9IjEyIiBoZWlnaHQ9IjIiLz4mI3hhOyAgICAgICAgPHJlY3QgeD0iMTUiIHk9IjI4IiB3aWR0aD0iNCIgaGVpZ2h0PSI0Ii8+JiN4YTsgICAgPC9nPiYjeGE7PC9zdmc+;" vertex="1" parent="Wxa58QXRY7GNk46uSiOk-43">
          <mxGeometry x="6" width="48" height="48" as="geometry" />
        </mxCell>
        <mxCell id="Wxa58QXRY7GNk46uSiOk-42" value="Aid Project" style="text;strokeColor=none;align=center;fillColor=none;html=1;verticalAlign=middle;whiteSpace=wrap;rounded=0;" vertex="1" parent="Wxa58QXRY7GNk46uSiOk-43">
          <mxGeometry y="51" width="60" height="30" as="geometry" />
        </mxCell>
        <mxCell id="Wxa58QXRY7GNk46uSiOk-46" value="" style="group" vertex="1" connectable="0" parent="1">
          <mxGeometry x="525" y="360" width="60" height="78" as="geometry" />
        </mxCell>
        <mxCell id="Wxa58QXRY7GNk46uSiOk-44" value="" style="shape=image;verticalLabelPosition=bottom;verticalAlign=top;imageAspect=0;aspect=fixed;image=data:image/svg+xml,PHN2ZyB4bWxucz0iaHR0cDovL3d3dy53My5vcmcvMjAwMC9zdmciIHZlcnNpb249IjEiIHZpZXdCb3g9IjAgMCA0OCA0OCIgZW5hYmxlLWJhY2tncm91bmQ9Im5ldyAwIDAgNDggNDgiPiYjeGE7ICAgIDxwYXRoIGZpbGw9IiM0NTVBNjQiIGQ9Ik0zNiw0SDI2YzAsMS4xLTAuOSwyLTIsMnMtMi0wLjktMi0ySDEyQzkuOCw0LDgsNS44LDgsOHYzMmMwLDIuMiwxLjgsNCw0LDRoMjRjMi4yLDAsNC0xLjgsNC00VjggQzQwLDUuOCwzOC4yLDQsMzYsNHoiLz4mI3hhOyAgICA8cGF0aCBmaWxsPSIjZmZmIiBkPSJNMzYsNDFIMTJjLTAuNiwwLTEtMC40LTEtMVY4YzAtMC42LDAuNC0xLDEtMWgyNGMwLjYsMCwxLDAuNCwxLDF2MzJDMzcsNDAuNiwzNi42LDQxLDM2LDQxeiIvPiYjeGE7ICAgIDxnIGZpbGw9IiM5MEE0QUUiPiYjeGE7ICAgICAgICA8cGF0aCBkPSJNMjYsNGMwLDEuMS0wLjksMi0yLDJzLTItMC45LTItMmgtN3Y0YzAsMS4xLDAuOSwyLDIsMmgxNGMxLjEsMCwyLTAuOSwyLTJWNEgyNnoiLz4mI3hhOyAgICAgICAgPHBhdGggZD0iTTI0LDBjLTIuMiwwLTQsMS44LTQsNHMxLjgsNCw0LDRzNC0xLjgsNC00UzI2LjIsMCwyNCwweiBNMjQsNmMtMS4xLDAtMi0wLjktMi0yczAuOS0yLDItMnMyLDAuOSwyLDIgUzI1LjEsNiwyNCw2eiIvPiYjeGE7ICAgIDwvZz4mI3hhOyAgICA8ZyBmaWxsPSIjQ0ZEOERDIj4mI3hhOyAgICAgICAgPHJlY3QgeD0iMjEiIHk9IjIwIiB3aWR0aD0iMTIiIGhlaWdodD0iMiIvPiYjeGE7ICAgICAgICA8cmVjdCB4PSIxNSIgeT0iMTkiIHdpZHRoPSI0IiBoZWlnaHQ9IjQiLz4mI3hhOyAgICA8L2c+JiN4YTsgICAgPGcgZmlsbD0iIzAzQTlGNCI+JiN4YTsgICAgICAgIDxyZWN0IHg9IjIxIiB5PSIyOSIgd2lkdGg9IjEyIiBoZWlnaHQ9IjIiLz4mI3hhOyAgICAgICAgPHJlY3QgeD0iMTUiIHk9IjI4IiB3aWR0aD0iNCIgaGVpZ2h0PSI0Ii8+JiN4YTsgICAgPC9nPiYjeGE7PC9zdmc+;container=1;" vertex="1" parent="Wxa58QXRY7GNk46uSiOk-46">
          <mxGeometry x="6" width="48" height="48" as="geometry" />
        </mxCell>
        <mxCell id="Wxa58QXRY7GNk46uSiOk-45" value="Salary&lt;br&gt;Project" style="text;strokeColor=none;align=center;fillColor=none;html=1;verticalAlign=middle;whiteSpace=wrap;rounded=0;" vertex="1" parent="Wxa58QXRY7GNk46uSiOk-46">
          <mxGeometry y="52" width="60" height="30" as="geometry" />
        </mxCell>
        <mxCell id="Wxa58QXRY7GNk46uSiOk-50" value="" style="group" vertex="1" connectable="0" parent="1">
          <mxGeometry x="770" y="529" width="60" height="78" as="geometry" />
        </mxCell>
        <mxCell id="Wxa58QXRY7GNk46uSiOk-48" value="" style="shape=image;verticalLabelPosition=bottom;verticalAlign=top;imageAspect=0;aspect=fixed;image=data:image/svg+xml,PHN2ZyB4bWxucz0iaHR0cDovL3d3dy53My5vcmcvMjAwMC9zdmciIHZlcnNpb249IjEiIHZpZXdCb3g9IjAgMCA0OCA0OCIgZW5hYmxlLWJhY2tncm91bmQ9Im5ldyAwIDAgNDggNDgiPiYjeGE7ICAgIDxnIGZpbGw9IiMzRjUxQjUiPiYjeGE7ICAgICAgICA8cG9seWdvbiBwb2ludHM9IjE3LjgsMTguMSAxMC40LDI1LjQgNi4yLDIxLjMgNCwyMy41IDEwLjQsMjkuOSAyMCwyMC4zIi8+JiN4YTsgICAgICAgIDxwb2x5Z29uIHBvaW50cz0iMTcuOCw1LjEgMTAuNCwxMi40IDYuMiw4LjMgNCwxMC41IDEwLjQsMTYuOSAyMCw3LjMiLz4mI3hhOyAgICAgICAgPHBvbHlnb24gcG9pbnRzPSIxNy44LDMxLjEgMTAuNCwzOC40IDYuMiwzNC4zIDQsMzYuNSAxMC40LDQyLjkgMjAsMzMuMyIvPiYjeGE7ICAgIDwvZz4mI3hhOyAgICA8ZyBmaWxsPSIjOTBDQUY5Ij4mI3hhOyAgICAgICAgPHJlY3QgeD0iMjQiIHk9IjIyIiB3aWR0aD0iMjAiIGhlaWdodD0iNCIvPiYjeGE7ICAgICAgICA8cmVjdCB4PSIyNCIgeT0iOSIgd2lkdGg9IjIwIiBoZWlnaHQ9IjQiLz4mI3hhOyAgICAgICAgPHJlY3QgeD0iMjQiIHk9IjM1IiB3aWR0aD0iMjAiIGhlaWdodD0iNCIvPiYjeGE7ICAgIDwvZz4mI3hhOzwvc3ZnPg==;" vertex="1" parent="Wxa58QXRY7GNk46uSiOk-50">
          <mxGeometry x="6" width="48" height="48" as="geometry" />
        </mxCell>
        <mxCell id="Wxa58QXRY7GNk46uSiOk-49" value="Aid&lt;br&gt;Tasks" style="text;strokeColor=none;align=center;fillColor=none;html=1;verticalAlign=middle;whiteSpace=wrap;rounded=0;" vertex="1" parent="Wxa58QXRY7GNk46uSiOk-50">
          <mxGeometry y="48" width="60" height="30" as="geometry" />
        </mxCell>
        <mxCell id="Wxa58QXRY7GNk46uSiOk-51" value="" style="group" vertex="1" connectable="0" parent="1">
          <mxGeometry x="390" y="529" width="60" height="78" as="geometry" />
        </mxCell>
        <mxCell id="Wxa58QXRY7GNk46uSiOk-52" value="" style="shape=image;verticalLabelPosition=bottom;verticalAlign=top;imageAspect=0;aspect=fixed;image=data:image/svg+xml,PHN2ZyB4bWxucz0iaHR0cDovL3d3dy53My5vcmcvMjAwMC9zdmciIHZlcnNpb249IjEiIHZpZXdCb3g9IjAgMCA0OCA0OCIgZW5hYmxlLWJhY2tncm91bmQ9Im5ldyAwIDAgNDggNDgiPiYjeGE7ICAgIDxnIGZpbGw9IiMzRjUxQjUiPiYjeGE7ICAgICAgICA8cG9seWdvbiBwb2ludHM9IjE3LjgsMTguMSAxMC40LDI1LjQgNi4yLDIxLjMgNCwyMy41IDEwLjQsMjkuOSAyMCwyMC4zIi8+JiN4YTsgICAgICAgIDxwb2x5Z29uIHBvaW50cz0iMTcuOCw1LjEgMTAuNCwxMi40IDYuMiw4LjMgNCwxMC41IDEwLjQsMTYuOSAyMCw3LjMiLz4mI3hhOyAgICAgICAgPHBvbHlnb24gcG9pbnRzPSIxNy44LDMxLjEgMTAuNCwzOC40IDYuMiwzNC4zIDQsMzYuNSAxMC40LDQyLjkgMjAsMzMuMyIvPiYjeGE7ICAgIDwvZz4mI3hhOyAgICA8ZyBmaWxsPSIjOTBDQUY5Ij4mI3hhOyAgICAgICAgPHJlY3QgeD0iMjQiIHk9IjIyIiB3aWR0aD0iMjAiIGhlaWdodD0iNCIvPiYjeGE7ICAgICAgICA8cmVjdCB4PSIyNCIgeT0iOSIgd2lkdGg9IjIwIiBoZWlnaHQ9IjQiLz4mI3hhOyAgICAgICAgPHJlY3QgeD0iMjQiIHk9IjM1IiB3aWR0aD0iMjAiIGhlaWdodD0iNCIvPiYjeGE7ICAgIDwvZz4mI3hhOzwvc3ZnPg==;" vertex="1" parent="Wxa58QXRY7GNk46uSiOk-51">
          <mxGeometry x="6" width="48" height="48" as="geometry" />
        </mxCell>
        <mxCell id="Wxa58QXRY7GNk46uSiOk-53" value="Salary&lt;br&gt;Tasks" style="text;strokeColor=none;align=center;fillColor=none;html=1;verticalAlign=middle;whiteSpace=wrap;rounded=0;" vertex="1" parent="Wxa58QXRY7GNk46uSiOk-51">
          <mxGeometry y="48" width="60" height="30" as="geometry" />
        </mxCell>
        <mxCell id="Wxa58QXRY7GNk46uSiOk-61" value="" style="group" vertex="1" connectable="0" parent="1">
          <mxGeometry x="846" y="368" width="60" height="70" as="geometry" />
        </mxCell>
        <mxCell id="Wxa58QXRY7GNk46uSiOk-62" value="" style="shape=image;verticalLabelPosition=bottom;verticalAlign=top;imageAspect=0;aspect=fixed;image=data:image/svg+xml,PHN2ZyB4bWxucz0iaHR0cDovL3d3dy53My5vcmcvMjAwMC9zdmciIHZlcnNpb249IjEiIHZpZXdCb3g9IjAgMCA0OCA0OCIgZW5hYmxlLWJhY2tncm91bmQ9Im5ldyAwIDAgNDggNDgiPiYjeGE7ICAgIDxwYXRoIGZpbGw9IiM3ODkwOUMiIGQ9Ik00MCw0MUg4Yy0yLjIsMC00LTEuOC00LTRsMC0yMC45YzAtMS4zLDAuNi0yLjUsMS43LTMuM0wyNCwwbDE4LjMsMTIuOGMxLjEsMC43LDEuNywyLDEuNywzLjNWMzcgQzQ0LDM5LjIsNDIuMiw0MSw0MCw0MXoiLz4mI3hhOyAgICA8cmVjdCB4PSIxNCIgeT0iMSIgZmlsbD0iI0FFRDU4MSIgd2lkdGg9IjIwIiBoZWlnaHQ9IjMxIi8+JiN4YTsgICAgPGcgZmlsbD0iIzU1OEIyRiI+JiN4YTsgICAgICAgIDxwYXRoIGQ9Ik0xMywwdjMzaDIyVjBIMTN6IE0zMywzMUgxNVYyaDE4VjMxeiIvPiYjeGE7ICAgICAgICA8cGF0aCBkPSJNMzQsM2MwLDEuNy0wLjMsMy0yLDNjLTEuNywwLTMtMS4zLTMtM3MxLjMtMiwzLTJDMzMuNywxLDM0LDEuMywzNCwzeiIvPiYjeGE7ICAgICAgICA8cGF0aCBkPSJNMTYsMWMxLjcsMCwzLDAuMywzLDJzLTEuMywzLTMsM3MtMi0xLjMtMi0zUzE0LjMsMSwxNiwxeiIvPiYjeGE7ICAgICAgICA8Y2lyY2xlIGN4PSIyNCIgY3k9IjgiIHI9IjIiLz4mI3hhOyAgICAgICAgPGNpcmNsZSBjeD0iMjQiIGN5PSIyMCIgcj0iNiIvPiYjeGE7ICAgIDwvZz4mI3hhOyAgICA8cGF0aCBmaWxsPSIjQ0ZEOERDIiBkPSJNNDAsNDFIOGMtMi4yLDAtNC0xLjgtNC00bDAtMjBsMjAsMTNsMjAtMTN2MjBDNDQsMzkuMiw0Mi4yLDQxLDQwLDQxeiIvPiYjeGE7PC9zdmc+;" vertex="1" parent="Wxa58QXRY7GNk46uSiOk-61">
          <mxGeometry x="6" width="48" height="48" as="geometry" />
        </mxCell>
        <mxCell id="Wxa58QXRY7GNk46uSiOk-63" value="Money" style="text;strokeColor=none;align=center;fillColor=none;html=1;verticalAlign=middle;whiteSpace=wrap;rounded=0;" vertex="1" parent="Wxa58QXRY7GNk46uSiOk-61">
          <mxGeometry y="40" width="60" height="30" as="geometry" />
        </mxCell>
        <mxCell id="Wxa58QXRY7GNk46uSiOk-66" style="edgeStyle=none;rounded=0;orthogonalLoop=1;jettySize=auto;html=1;exitX=1;exitY=0;exitDx=0;exitDy=0;entryX=0;entryY=0.5;entryDx=0;entryDy=0;" edge="1" parent="1" source="Wxa58QXRY7GNk46uSiOk-23" target="Wxa58QXRY7GNk46uSiOk-10">
          <mxGeometry relative="1" as="geometry" />
        </mxCell>
        <mxCell id="Wxa58QXRY7GNk46uSiOk-67" style="edgeStyle=none;rounded=0;orthogonalLoop=1;jettySize=auto;html=1;entryX=1;entryY=0.5;entryDx=0;entryDy=0;exitX=0;exitY=0.75;exitDx=0;exitDy=0;" edge="1" parent="1" source="Wxa58QXRY7GNk46uSiOk-11" target="Wxa58QXRY7GNk46uSiOk-10">
          <mxGeometry relative="1" as="geometry">
            <mxPoint x="700" y="100" as="sourcePoint" />
          </mxGeometry>
        </mxCell>
        <mxCell id="Wxa58QXRY7GNk46uSiOk-68" style="edgeStyle=none;rounded=0;orthogonalLoop=1;jettySize=auto;html=1;exitX=0.5;exitY=1;exitDx=0;exitDy=0;entryX=0.5;entryY=0;entryDx=0;entryDy=0;" edge="1" parent="1" source="Wxa58QXRY7GNk46uSiOk-17" target="Wxa58QXRY7GNk46uSiOk-31">
          <mxGeometry relative="1" as="geometry" />
        </mxCell>
        <mxCell id="Wxa58QXRY7GNk46uSiOk-70" value="" style="group" vertex="1" connectable="0" parent="1">
          <mxGeometry x="455" y="213.5" width="60" height="71" as="geometry" />
        </mxCell>
        <mxCell id="Wxa58QXRY7GNk46uSiOk-71" value="" style="shape=image;verticalLabelPosition=bottom;verticalAlign=top;imageAspect=0;aspect=fixed;image=data:image/svg+xml,PHN2ZyB4bWxucz0iaHR0cDovL3d3dy53My5vcmcvMjAwMC9zdmciIHZlcnNpb249IjEiIHZpZXdCb3g9IjAgMCA0OCA0OCIgZW5hYmxlLWJhY2tncm91bmQ9Im5ldyAwIDAgNDggNDgiPiYjeGE7ICAgIDxwb2x5Z29uIGZpbGw9IiM5MENBRjkiIHBvaW50cz0iNDAsNDUgOCw0NSA4LDMgMzAsMyA0MCwxMyIvPiYjeGE7ICAgIDxwb2x5Z29uIGZpbGw9IiNFMUY1RkUiIHBvaW50cz0iMzguNSwxNCAyOSwxNCAyOSw0LjUiLz4mI3hhOyAgICA8ZyBmaWxsPSIjMTk3NkQyIj4mI3hhOyAgICAgICAgPHJlY3QgeD0iMTYiIHk9IjIxIiB3aWR0aD0iMTciIGhlaWdodD0iMiIvPiYjeGE7ICAgICAgICA8cmVjdCB4PSIxNiIgeT0iMjUiIHdpZHRoPSIxMyIgaGVpZ2h0PSIyIi8+JiN4YTsgICAgICAgIDxyZWN0IHg9IjE2IiB5PSIyOSIgd2lkdGg9IjE3IiBoZWlnaHQ9IjIiLz4mI3hhOyAgICAgICAgPHJlY3QgeD0iMTYiIHk9IjMzIiB3aWR0aD0iMTMiIGhlaWdodD0iMiIvPiYjeGE7ICAgIDwvZz4mI3hhOzwvc3ZnPg==;" vertex="1" parent="Wxa58QXRY7GNk46uSiOk-70">
          <mxGeometry x="6" width="48" height="48" as="geometry" />
        </mxCell>
        <mxCell id="Wxa58QXRY7GNk46uSiOk-72" value="Report" style="text;strokeColor=none;align=center;fillColor=none;html=1;verticalAlign=middle;whiteSpace=wrap;rounded=0;" vertex="1" parent="Wxa58QXRY7GNk46uSiOk-70">
          <mxGeometry y="41" width="60" height="30" as="geometry" />
        </mxCell>
        <mxCell id="Wxa58QXRY7GNk46uSiOk-74" style="edgeStyle=none;rounded=0;orthogonalLoop=1;jettySize=auto;html=1;exitX=1;exitY=0.5;exitDx=0;exitDy=0;entryX=0;entryY=0.5;entryDx=0;entryDy=0;" edge="1" parent="1" source="Wxa58QXRY7GNk46uSiOk-3" target="Wxa58QXRY7GNk46uSiOk-71">
          <mxGeometry relative="1" as="geometry" />
        </mxCell>
        <mxCell id="Wxa58QXRY7GNk46uSiOk-87" style="edgeStyle=none;rounded=0;orthogonalLoop=1;jettySize=auto;html=1;exitX=0.5;exitY=1;exitDx=0;exitDy=0;entryX=0.5;entryY=0;entryDx=0;entryDy=0;" edge="1" parent="1" source="Wxa58QXRY7GNk46uSiOk-28" target="Wxa58QXRY7GNk46uSiOk-62">
          <mxGeometry relative="1" as="geometry" />
        </mxCell>
        <mxCell id="Wxa58QXRY7GNk46uSiOk-88" style="edgeStyle=none;rounded=0;orthogonalLoop=1;jettySize=auto;html=1;exitX=1;exitY=1;exitDx=0;exitDy=0;entryX=0.75;entryY=0;entryDx=0;entryDy=0;" edge="1" parent="1" source="Wxa58QXRY7GNk46uSiOk-41" target="Wxa58QXRY7GNk46uSiOk-77">
          <mxGeometry relative="1" as="geometry" />
        </mxCell>
        <mxCell id="Wxa58QXRY7GNk46uSiOk-89" style="edgeStyle=none;rounded=0;orthogonalLoop=1;jettySize=auto;html=1;exitX=0;exitY=1;exitDx=0;exitDy=0;entryX=0.25;entryY=0;entryDx=0;entryDy=0;" edge="1" parent="1" source="Wxa58QXRY7GNk46uSiOk-44" target="Wxa58QXRY7GNk46uSiOk-77">
          <mxGeometry relative="1" as="geometry">
            <mxPoint x="640" y="485" as="targetPoint" />
          </mxGeometry>
        </mxCell>
        <mxCell id="Wxa58QXRY7GNk46uSiOk-91" value="Task Assignment" style="text;strokeColor=none;align=center;fillColor=none;html=1;verticalAlign=middle;whiteSpace=wrap;rounded=0;fontStyle=1;fontSize=15;" vertex="1" parent="1">
          <mxGeometry x="40" y="380" width="60" height="30" as="geometry" />
        </mxCell>
        <mxCell id="Wxa58QXRY7GNk46uSiOk-92" value="Disbursement" style="text;strokeColor=none;align=center;fillColor=none;html=1;verticalAlign=middle;whiteSpace=wrap;rounded=0;fontStyle=1;fontSize=15;" vertex="1" parent="1">
          <mxGeometry x="40" y="557" width="60" height="30" as="geometry" />
        </mxCell>
        <mxCell id="Wxa58QXRY7GNk46uSiOk-93" value="" style="group" vertex="1" connectable="0" parent="1">
          <mxGeometry x="150" y="680" width="968" height="110" as="geometry" />
        </mxCell>
        <mxCell id="Wxa58QXRY7GNk46uSiOk-83" value="" style="whiteSpace=wrap;html=1;" vertex="1" parent="Wxa58QXRY7GNk46uSiOk-93">
          <mxGeometry width="968" height="110" as="geometry" />
        </mxCell>
        <mxCell id="8--HhbSZYtI3ddgJnD71-16" value="Beneficiary" style="shape=image;verticalLabelPosition=bottom;verticalAlign=top;imageAspect=0;aspect=fixed;image=data:image/svg+xml,PHN2ZyB4bWxucz0iaHR0cDovL3d3dy53My5vcmcvMjAwMC9zdmciIHZlcnNpb249IjEiIHZpZXdCb3g9IjAgMCA0OCA0OCIgZW5hYmxlLWJhY2tncm91bmQ9Im5ldyAwIDAgNDggNDgiPiYjeGE7ICAgIDxwb2x5Z29uIGZpbGw9IiNGRjk4MDAiIHBvaW50cz0iMjQsMzcgMTksMzEgMTksMjUgMjksMjUgMjksMzEiLz4mI3hhOyAgICA8ZyBmaWxsPSIjRkZBNzI2Ij4mI3hhOyAgICAgICAgPGNpcmNsZSBjeD0iMzMiIGN5PSIxOSIgcj0iMiIvPiYjeGE7ICAgICAgICA8Y2lyY2xlIGN4PSIxNSIgY3k9IjE5IiByPSIyIi8+JiN4YTsgICAgPC9nPiYjeGE7ICAgIDxwYXRoIGZpbGw9IiNGRkI3NEQiIGQ9Ik0zMywxM2MwLTcuNi0xOC01LTE4LDBjMCwxLjEsMCw1LjksMCw3YzAsNSw0LDksOSw5czktNCw5LTlDMzMsMTguOSwzMywxNC4xLDMzLDEzeiIvPiYjeGE7ICAgIDxwYXRoIGZpbGw9IiM0MjQyNDIiIGQ9Ik0yNCw0Yy02LjEsMC0xMCw0LjktMTAsMTFjMCwwLjgsMCwyLjMsMCwyLjNsMiwxLjd2LTVsMTItNGw0LDR2NWwyLTEuN2MwLDAsMC0xLjUsMC0yLjNjMC00LTEtOC02LTlsLTEtMiBIMjR6Ii8+JiN4YTsgICAgPGcgZmlsbD0iIzc4NDcxOSI+JiN4YTsgICAgICAgIDxjaXJjbGUgY3g9IjI4IiBjeT0iMTkiIHI9IjEiLz4mI3hhOyAgICAgICAgPGNpcmNsZSBjeD0iMjAiIGN5PSIxOSIgcj0iMSIvPiYjeGE7ICAgIDwvZz4mI3hhOyAgICA8cG9seWdvbiBmaWxsPSIjZmZmIiBwb2ludHM9IjI0LDQzIDE5LDMxIDI0LDMyIDI5LDMxIi8+JiN4YTsgICAgPHBvbHlnb24gZmlsbD0iI0QzMkYyRiIgcG9pbnRzPSIyMywzNSAyMi4zLDM5LjUgMjQsNDMuNSAyNS43LDM5LjUgMjUsMzUgMjYsMzQgMjQsMzIgMjIsMzQiLz4mI3hhOyAgICA8cGF0aCBmaWxsPSIjNTQ2RTdBIiBkPSJNMjksMzFMMjksMzFsLTUsMTJsLTUtMTJjMCwwLTExLDItMTEsMTNoMzJDNDAsMzMsMjksMzEsMjksMzF6Ii8+JiN4YTs8L3N2Zz4=;labelBackgroundColor=#ffffff;" parent="Wxa58QXRY7GNk46uSiOk-93" vertex="1">
          <mxGeometry x="270" y="23" width="48" height="48" as="geometry" />
        </mxCell>
        <mxCell id="Wxa58QXRY7GNk46uSiOk-2" value="Beneficiary" style="shape=image;verticalLabelPosition=bottom;verticalAlign=top;imageAspect=0;aspect=fixed;image=data:image/svg+xml,PHN2ZyB4bWxucz0iaHR0cDovL3d3dy53My5vcmcvMjAwMC9zdmciIHZlcnNpb249IjEiIHZpZXdCb3g9IjAgMCA0OCA0OCIgZW5hYmxlLWJhY2tncm91bmQ9Im5ldyAwIDAgNDggNDgiPiYjeGE7ICAgIDxwb2x5Z29uIGZpbGw9IiNGRjk4MDAiIHBvaW50cz0iMjQsMzcgMTksMzEgMTksMjUgMjksMjUgMjksMzEiLz4mI3hhOyAgICA8ZyBmaWxsPSIjRkZBNzI2Ij4mI3hhOyAgICAgICAgPGNpcmNsZSBjeD0iMzMiIGN5PSIxOSIgcj0iMiIvPiYjeGE7ICAgICAgICA8Y2lyY2xlIGN4PSIxNSIgY3k9IjE5IiByPSIyIi8+JiN4YTsgICAgPC9nPiYjeGE7ICAgIDxwYXRoIGZpbGw9IiNGRkI3NEQiIGQ9Ik0zMywxM2MwLTcuNi0xOC01LTE4LDBjMCwxLjEsMCw1LjksMCw3YzAsNSw0LDksOSw5czktNCw5LTlDMzMsMTguOSwzMywxNC4xLDMzLDEzeiIvPiYjeGE7ICAgIDxwYXRoIGZpbGw9IiM0MjQyNDIiIGQ9Ik0yNCw0Yy02LjEsMC0xMCw0LjktMTAsMTFjMCwwLjgsMCwyLjMsMCwyLjNsMiwxLjd2LTVsMTItNGw0LDR2NWwyLTEuN2MwLDAsMC0xLjUsMC0yLjNjMC00LTEtOC02LTlsLTEtMiBIMjR6Ii8+JiN4YTsgICAgPGcgZmlsbD0iIzc4NDcxOSI+JiN4YTsgICAgICAgIDxjaXJjbGUgY3g9IjI4IiBjeT0iMTkiIHI9IjEiLz4mI3hhOyAgICAgICAgPGNpcmNsZSBjeD0iMjAiIGN5PSIxOSIgcj0iMSIvPiYjeGE7ICAgIDwvZz4mI3hhOyAgICA8cG9seWdvbiBmaWxsPSIjZmZmIiBwb2ludHM9IjI0LDQzIDE5LDMxIDI0LDMyIDI5LDMxIi8+JiN4YTsgICAgPHBvbHlnb24gZmlsbD0iI0QzMkYyRiIgcG9pbnRzPSIyMywzNSAyMi4zLDM5LjUgMjQsNDMuNSAyNS43LDM5LjUgMjUsMzUgMjYsMzQgMjQsMzIgMjIsMzQiLz4mI3hhOyAgICA8cGF0aCBmaWxsPSIjNTQ2RTdBIiBkPSJNMjksMzFMMjksMzFsLTUsMTJsLTUtMTJjMCwwLTExLDItMTEsMTNoMzJDNDAsMzMsMjksMzEsMjksMzF6Ii8+JiN4YTs8L3N2Zz4=;labelBackgroundColor=#ffffff;" vertex="1" parent="Wxa58QXRY7GNk46uSiOk-93">
          <mxGeometry x="158" y="23" width="48" height="48" as="geometry" />
        </mxCell>
        <mxCell id="Wxa58QXRY7GNk46uSiOk-58" value="Beneficiary" style="shape=image;verticalLabelPosition=bottom;verticalAlign=top;imageAspect=0;aspect=fixed;image=data:image/svg+xml,PHN2ZyB4bWxucz0iaHR0cDovL3d3dy53My5vcmcvMjAwMC9zdmciIHZlcnNpb249IjEiIHZpZXdCb3g9IjAgMCA0OCA0OCIgZW5hYmxlLWJhY2tncm91bmQ9Im5ldyAwIDAgNDggNDgiPiYjeGE7ICAgIDxwb2x5Z29uIGZpbGw9IiNGRjk4MDAiIHBvaW50cz0iMjQsMzcgMTksMzEgMTksMjUgMjksMjUgMjksMzEiLz4mI3hhOyAgICA8ZyBmaWxsPSIjRkZBNzI2Ij4mI3hhOyAgICAgICAgPGNpcmNsZSBjeD0iMzMiIGN5PSIxOSIgcj0iMiIvPiYjeGE7ICAgICAgICA8Y2lyY2xlIGN4PSIxNSIgY3k9IjE5IiByPSIyIi8+JiN4YTsgICAgPC9nPiYjeGE7ICAgIDxwYXRoIGZpbGw9IiNGRkI3NEQiIGQ9Ik0zMywxM2MwLTcuNi0xOC01LTE4LDBjMCwxLjEsMCw1LjksMCw3YzAsNSw0LDksOSw5czktNCw5LTlDMzMsMTguOSwzMywxNC4xLDMzLDEzeiIvPiYjeGE7ICAgIDxwYXRoIGZpbGw9IiM0MjQyNDIiIGQ9Ik0yNCw0Yy02LjEsMC0xMCw0LjktMTAsMTFjMCwwLjgsMCwyLjMsMCwyLjNsMiwxLjd2LTVsMTItNGw0LDR2NWwyLTEuN2MwLDAsMC0xLjUsMC0yLjNjMC00LTEtOC02LTlsLTEtMiBIMjR6Ii8+JiN4YTsgICAgPGcgZmlsbD0iIzc4NDcxOSI+JiN4YTsgICAgICAgIDxjaXJjbGUgY3g9IjI4IiBjeT0iMTkiIHI9IjEiLz4mI3hhOyAgICAgICAgPGNpcmNsZSBjeD0iMjAiIGN5PSIxOSIgcj0iMSIvPiYjeGE7ICAgIDwvZz4mI3hhOyAgICA8cG9seWdvbiBmaWxsPSIjZmZmIiBwb2ludHM9IjI0LDQzIDE5LDMxIDI0LDMyIDI5LDMxIi8+JiN4YTsgICAgPHBvbHlnb24gZmlsbD0iI0QzMkYyRiIgcG9pbnRzPSIyMywzNSAyMi4zLDM5LjUgMjQsNDMuNSAyNS43LDM5LjUgMjUsMzUgMjYsMzQgMjQsMzIgMjIsMzQiLz4mI3hhOyAgICA8cGF0aCBmaWxsPSIjNTQ2RTdBIiBkPSJNMjksMzFMMjksMzFsLTUsMTJsLTUtMTJjMCwwLTExLDItMTEsMTNoMzJDNDAsMzMsMjksMzEsMjksMzF6Ii8+JiN4YTs8L3N2Zz4=;labelBackgroundColor=#ffffff;" vertex="1" parent="Wxa58QXRY7GNk46uSiOk-93">
          <mxGeometry x="378" y="23" width="48" height="48" as="geometry" />
        </mxCell>
        <mxCell id="Wxa58QXRY7GNk46uSiOk-59" value="Beneficiary" style="shape=image;verticalLabelPosition=bottom;verticalAlign=top;imageAspect=0;aspect=fixed;image=data:image/svg+xml,PHN2ZyB4bWxucz0iaHR0cDovL3d3dy53My5vcmcvMjAwMC9zdmciIHZlcnNpb249IjEiIHZpZXdCb3g9IjAgMCA0OCA0OCIgZW5hYmxlLWJhY2tncm91bmQ9Im5ldyAwIDAgNDggNDgiPiYjeGE7ICAgIDxwb2x5Z29uIGZpbGw9IiNGRjk4MDAiIHBvaW50cz0iMjQsMzcgMTksMzEgMTksMjUgMjksMjUgMjksMzEiLz4mI3hhOyAgICA8ZyBmaWxsPSIjRkZBNzI2Ij4mI3hhOyAgICAgICAgPGNpcmNsZSBjeD0iMzMiIGN5PSIxOSIgcj0iMiIvPiYjeGE7ICAgICAgICA8Y2lyY2xlIGN4PSIxNSIgY3k9IjE5IiByPSIyIi8+JiN4YTsgICAgPC9nPiYjeGE7ICAgIDxwYXRoIGZpbGw9IiNGRkI3NEQiIGQ9Ik0zMywxM2MwLTcuNi0xOC01LTE4LDBjMCwxLjEsMCw1LjksMCw3YzAsNSw0LDksOSw5czktNCw5LTlDMzMsMTguOSwzMywxNC4xLDMzLDEzeiIvPiYjeGE7ICAgIDxwYXRoIGZpbGw9IiM0MjQyNDIiIGQ9Ik0yNCw0Yy02LjEsMC0xMCw0LjktMTAsMTFjMCwwLjgsMCwyLjMsMCwyLjNsMiwxLjd2LTVsMTItNGw0LDR2NWwyLTEuN2MwLDAsMC0xLjUsMC0yLjNjMC00LTEtOC02LTlsLTEtMiBIMjR6Ii8+JiN4YTsgICAgPGcgZmlsbD0iIzc4NDcxOSI+JiN4YTsgICAgICAgIDxjaXJjbGUgY3g9IjI4IiBjeT0iMTkiIHI9IjEiLz4mI3hhOyAgICAgICAgPGNpcmNsZSBjeD0iMjAiIGN5PSIxOSIgcj0iMSIvPiYjeGE7ICAgIDwvZz4mI3hhOyAgICA8cG9seWdvbiBmaWxsPSIjZmZmIiBwb2ludHM9IjI0LDQzIDE5LDMxIDI0LDMyIDI5LDMxIi8+JiN4YTsgICAgPHBvbHlnb24gZmlsbD0iI0QzMkYyRiIgcG9pbnRzPSIyMywzNSAyMi4zLDM5LjUgMjQsNDMuNSAyNS43LDM5LjUgMjUsMzUgMjYsMzQgMjQsMzIgMjIsMzQiLz4mI3hhOyAgICA8cGF0aCBmaWxsPSIjNTQ2RTdBIiBkPSJNMjksMzFMMjksMzFsLTUsMTJsLTUtMTJjMCwwLTExLDItMTEsMTNoMzJDNDAsMzMsMjksMzEsMjksMzF6Ii8+JiN4YTs8L3N2Zz4=;labelBackgroundColor=#ffffff;" vertex="1" parent="Wxa58QXRY7GNk46uSiOk-93">
          <mxGeometry x="44" y="23" width="48" height="48" as="geometry" />
        </mxCell>
        <mxCell id="Wxa58QXRY7GNk46uSiOk-79" value="Beneficiary" style="shape=image;verticalLabelPosition=bottom;verticalAlign=top;imageAspect=0;aspect=fixed;image=data:image/svg+xml,PHN2ZyB4bWxucz0iaHR0cDovL3d3dy53My5vcmcvMjAwMC9zdmciIHZlcnNpb249IjEiIHZpZXdCb3g9IjAgMCA0OCA0OCIgZW5hYmxlLWJhY2tncm91bmQ9Im5ldyAwIDAgNDggNDgiPiYjeGE7ICAgIDxwb2x5Z29uIGZpbGw9IiNGRjk4MDAiIHBvaW50cz0iMjQsMzcgMTksMzEgMTksMjUgMjksMjUgMjksMzEiLz4mI3hhOyAgICA8ZyBmaWxsPSIjRkZBNzI2Ij4mI3hhOyAgICAgICAgPGNpcmNsZSBjeD0iMzMiIGN5PSIxOSIgcj0iMiIvPiYjeGE7ICAgICAgICA8Y2lyY2xlIGN4PSIxNSIgY3k9IjE5IiByPSIyIi8+JiN4YTsgICAgPC9nPiYjeGE7ICAgIDxwYXRoIGZpbGw9IiNGRkI3NEQiIGQ9Ik0zMywxM2MwLTcuNi0xOC01LTE4LDBjMCwxLjEsMCw1LjksMCw3YzAsNSw0LDksOSw5czktNCw5LTlDMzMsMTguOSwzMywxNC4xLDMzLDEzeiIvPiYjeGE7ICAgIDxwYXRoIGZpbGw9IiM0MjQyNDIiIGQ9Ik0yNCw0Yy02LjEsMC0xMCw0LjktMTAsMTFjMCwwLjgsMCwyLjMsMCwyLjNsMiwxLjd2LTVsMTItNGw0LDR2NWwyLTEuN2MwLDAsMC0xLjUsMC0yLjNjMC00LTEtOC02LTlsLTEtMiBIMjR6Ii8+JiN4YTsgICAgPGcgZmlsbD0iIzc4NDcxOSI+JiN4YTsgICAgICAgIDxjaXJjbGUgY3g9IjI4IiBjeT0iMTkiIHI9IjEiLz4mI3hhOyAgICAgICAgPGNpcmNsZSBjeD0iMjAiIGN5PSIxOSIgcj0iMSIvPiYjeGE7ICAgIDwvZz4mI3hhOyAgICA8cG9seWdvbiBmaWxsPSIjZmZmIiBwb2ludHM9IjI0LDQzIDE5LDMxIDI0LDMyIDI5LDMxIi8+JiN4YTsgICAgPHBvbHlnb24gZmlsbD0iI0QzMkYyRiIgcG9pbnRzPSIyMywzNSAyMi4zLDM5LjUgMjQsNDMuNSAyNS43LDM5LjUgMjUsMzUgMjYsMzQgMjQsMzIgMjIsMzQiLz4mI3hhOyAgICA8cGF0aCBmaWxsPSIjNTQ2RTdBIiBkPSJNMjksMzFMMjksMzFsLTUsMTJsLTUtMTJjMCwwLTExLDItMTEsMTNoMzJDNDAsMzMsMjksMzEsMjksMzF6Ii8+JiN4YTs8L3N2Zz4=;labelBackgroundColor=#ffffff;" vertex="1" parent="Wxa58QXRY7GNk46uSiOk-93">
          <mxGeometry x="784" y="23" width="48" height="48" as="geometry" />
        </mxCell>
        <mxCell id="Wxa58QXRY7GNk46uSiOk-80" value="Beneficiary" style="shape=image;verticalLabelPosition=bottom;verticalAlign=top;imageAspect=0;aspect=fixed;image=data:image/svg+xml,PHN2ZyB4bWxucz0iaHR0cDovL3d3dy53My5vcmcvMjAwMC9zdmciIHZlcnNpb249IjEiIHZpZXdCb3g9IjAgMCA0OCA0OCIgZW5hYmxlLWJhY2tncm91bmQ9Im5ldyAwIDAgNDggNDgiPiYjeGE7ICAgIDxwb2x5Z29uIGZpbGw9IiNGRjk4MDAiIHBvaW50cz0iMjQsMzcgMTksMzEgMTksMjUgMjksMjUgMjksMzEiLz4mI3hhOyAgICA8ZyBmaWxsPSIjRkZBNzI2Ij4mI3hhOyAgICAgICAgPGNpcmNsZSBjeD0iMzMiIGN5PSIxOSIgcj0iMiIvPiYjeGE7ICAgICAgICA8Y2lyY2xlIGN4PSIxNSIgY3k9IjE5IiByPSIyIi8+JiN4YTsgICAgPC9nPiYjeGE7ICAgIDxwYXRoIGZpbGw9IiNGRkI3NEQiIGQ9Ik0zMywxM2MwLTcuNi0xOC01LTE4LDBjMCwxLjEsMCw1LjksMCw3YzAsNSw0LDksOSw5czktNCw5LTlDMzMsMTguOSwzMywxNC4xLDMzLDEzeiIvPiYjeGE7ICAgIDxwYXRoIGZpbGw9IiM0MjQyNDIiIGQ9Ik0yNCw0Yy02LjEsMC0xMCw0LjktMTAsMTFjMCwwLjgsMCwyLjMsMCwyLjNsMiwxLjd2LTVsMTItNGw0LDR2NWwyLTEuN2MwLDAsMC0xLjUsMC0yLjNjMC00LTEtOC02LTlsLTEtMiBIMjR6Ii8+JiN4YTsgICAgPGcgZmlsbD0iIzc4NDcxOSI+JiN4YTsgICAgICAgIDxjaXJjbGUgY3g9IjI4IiBjeT0iMTkiIHI9IjEiLz4mI3hhOyAgICAgICAgPGNpcmNsZSBjeD0iMjAiIGN5PSIxOSIgcj0iMSIvPiYjeGE7ICAgIDwvZz4mI3hhOyAgICA8cG9seWdvbiBmaWxsPSIjZmZmIiBwb2ludHM9IjI0LDQzIDE5LDMxIDI0LDMyIDI5LDMxIi8+JiN4YTsgICAgPHBvbHlnb24gZmlsbD0iI0QzMkYyRiIgcG9pbnRzPSIyMywzNSAyMi4zLDM5LjUgMjQsNDMuNSAyNS43LDM5LjUgMjUsMzUgMjYsMzQgMjQsMzIgMjIsMzQiLz4mI3hhOyAgICA8cGF0aCBmaWxsPSIjNTQ2RTdBIiBkPSJNMjksMzFMMjksMzFsLTUsMTJsLTUtMTJjMCwwLTExLDItMTEsMTNoMzJDNDAsMzMsMjksMzEsMjksMzF6Ii8+JiN4YTs8L3N2Zz4=;labelBackgroundColor=#ffffff;" vertex="1" parent="Wxa58QXRY7GNk46uSiOk-93">
          <mxGeometry x="668" y="23" width="48" height="48" as="geometry" />
        </mxCell>
        <mxCell id="Wxa58QXRY7GNk46uSiOk-81" value="Beneficiary" style="shape=image;verticalLabelPosition=bottom;verticalAlign=top;imageAspect=0;aspect=fixed;image=data:image/svg+xml,PHN2ZyB4bWxucz0iaHR0cDovL3d3dy53My5vcmcvMjAwMC9zdmciIHZlcnNpb249IjEiIHZpZXdCb3g9IjAgMCA0OCA0OCIgZW5hYmxlLWJhY2tncm91bmQ9Im5ldyAwIDAgNDggNDgiPiYjeGE7ICAgIDxwb2x5Z29uIGZpbGw9IiNGRjk4MDAiIHBvaW50cz0iMjQsMzcgMTksMzEgMTksMjUgMjksMjUgMjksMzEiLz4mI3hhOyAgICA8ZyBmaWxsPSIjRkZBNzI2Ij4mI3hhOyAgICAgICAgPGNpcmNsZSBjeD0iMzMiIGN5PSIxOSIgcj0iMiIvPiYjeGE7ICAgICAgICA8Y2lyY2xlIGN4PSIxNSIgY3k9IjE5IiByPSIyIi8+JiN4YTsgICAgPC9nPiYjeGE7ICAgIDxwYXRoIGZpbGw9IiNGRkI3NEQiIGQ9Ik0zMywxM2MwLTcuNi0xOC01LTE4LDBjMCwxLjEsMCw1LjksMCw3YzAsNSw0LDksOSw5czktNCw5LTlDMzMsMTguOSwzMywxNC4xLDMzLDEzeiIvPiYjeGE7ICAgIDxwYXRoIGZpbGw9IiM0MjQyNDIiIGQ9Ik0yNCw0Yy02LjEsMC0xMCw0LjktMTAsMTFjMCwwLjgsMCwyLjMsMCwyLjNsMiwxLjd2LTVsMTItNGw0LDR2NWwyLTEuN2MwLDAsMC0xLjUsMC0yLjNjMC00LTEtOC02LTlsLTEtMiBIMjR6Ii8+JiN4YTsgICAgPGcgZmlsbD0iIzc4NDcxOSI+JiN4YTsgICAgICAgIDxjaXJjbGUgY3g9IjI4IiBjeT0iMTkiIHI9IjEiLz4mI3hhOyAgICAgICAgPGNpcmNsZSBjeD0iMjAiIGN5PSIxOSIgcj0iMSIvPiYjeGE7ICAgIDwvZz4mI3hhOyAgICA8cG9seWdvbiBmaWxsPSIjZmZmIiBwb2ludHM9IjI0LDQzIDE5LDMxIDI0LDMyIDI5LDMxIi8+JiN4YTsgICAgPHBvbHlnb24gZmlsbD0iI0QzMkYyRiIgcG9pbnRzPSIyMywzNSAyMi4zLDM5LjUgMjQsNDMuNSAyNS43LDM5LjUgMjUsMzUgMjYsMzQgMjQsMzIgMjIsMzQiLz4mI3hhOyAgICA8cGF0aCBmaWxsPSIjNTQ2RTdBIiBkPSJNMjksMzFMMjksMzFsLTUsMTJsLTUtMTJjMCwwLTExLDItMTEsMTNoMzJDNDAsMzMsMjksMzEsMjksMzF6Ii8+JiN4YTs8L3N2Zz4=;labelBackgroundColor=#ffffff;" vertex="1" parent="Wxa58QXRY7GNk46uSiOk-93">
          <mxGeometry x="888" y="23" width="48" height="48" as="geometry" />
        </mxCell>
        <mxCell id="Wxa58QXRY7GNk46uSiOk-82" value="Beneficiary" style="shape=image;verticalLabelPosition=bottom;verticalAlign=top;imageAspect=0;aspect=fixed;image=data:image/svg+xml,PHN2ZyB4bWxucz0iaHR0cDovL3d3dy53My5vcmcvMjAwMC9zdmciIHZlcnNpb249IjEiIHZpZXdCb3g9IjAgMCA0OCA0OCIgZW5hYmxlLWJhY2tncm91bmQ9Im5ldyAwIDAgNDggNDgiPiYjeGE7ICAgIDxwb2x5Z29uIGZpbGw9IiNGRjk4MDAiIHBvaW50cz0iMjQsMzcgMTksMzEgMTksMjUgMjksMjUgMjksMzEiLz4mI3hhOyAgICA8ZyBmaWxsPSIjRkZBNzI2Ij4mI3hhOyAgICAgICAgPGNpcmNsZSBjeD0iMzMiIGN5PSIxOSIgcj0iMiIvPiYjeGE7ICAgICAgICA8Y2lyY2xlIGN4PSIxNSIgY3k9IjE5IiByPSIyIi8+JiN4YTsgICAgPC9nPiYjeGE7ICAgIDxwYXRoIGZpbGw9IiNGRkI3NEQiIGQ9Ik0zMywxM2MwLTcuNi0xOC01LTE4LDBjMCwxLjEsMCw1LjksMCw3YzAsNSw0LDksOSw5czktNCw5LTlDMzMsMTguOSwzMywxNC4xLDMzLDEzeiIvPiYjeGE7ICAgIDxwYXRoIGZpbGw9IiM0MjQyNDIiIGQ9Ik0yNCw0Yy02LjEsMC0xMCw0LjktMTAsMTFjMCwwLjgsMCwyLjMsMCwyLjNsMiwxLjd2LTVsMTItNGw0LDR2NWwyLTEuN2MwLDAsMC0xLjUsMC0yLjNjMC00LTEtOC02LTlsLTEtMiBIMjR6Ii8+JiN4YTsgICAgPGcgZmlsbD0iIzc4NDcxOSI+JiN4YTsgICAgICAgIDxjaXJjbGUgY3g9IjI4IiBjeT0iMTkiIHI9IjEiLz4mI3hhOyAgICAgICAgPGNpcmNsZSBjeD0iMjAiIGN5PSIxOSIgcj0iMSIvPiYjeGE7ICAgIDwvZz4mI3hhOyAgICA8cG9seWdvbiBmaWxsPSIjZmZmIiBwb2ludHM9IjI0LDQzIDE5LDMxIDI0LDMyIDI5LDMxIi8+JiN4YTsgICAgPHBvbHlnb24gZmlsbD0iI0QzMkYyRiIgcG9pbnRzPSIyMywzNSAyMi4zLDM5LjUgMjQsNDMuNSAyNS43LDM5LjUgMjUsMzUgMjYsMzQgMjQsMzIgMjIsMzQiLz4mI3hhOyAgICA8cGF0aCBmaWxsPSIjNTQ2RTdBIiBkPSJNMjksMzFMMjksMzFsLTUsMTJsLTUtMTJjMCwwLTExLDItMTEsMTNoMzJDNDAsMzMsMjksMzEsMjksMzF6Ii8+JiN4YTs8L3N2Zz4=;labelBackgroundColor=#ffffff;" vertex="1" parent="Wxa58QXRY7GNk46uSiOk-93">
          <mxGeometry x="558" y="23" width="48" height="48" as="geometry" />
        </mxCell>
        <mxCell id="Wxa58QXRY7GNk46uSiOk-94" value="Confirmation" style="text;strokeColor=none;align=center;fillColor=none;html=1;verticalAlign=middle;whiteSpace=wrap;rounded=0;fontStyle=1;fontSize=15;" vertex="1" parent="1">
          <mxGeometry x="40" y="720" width="60" height="30" as="geometry" />
        </mxCell>
        <mxCell id="Wxa58QXRY7GNk46uSiOk-95" style="edgeStyle=none;rounded=0;orthogonalLoop=1;jettySize=auto;html=1;exitX=0.5;exitY=0;exitDx=0;exitDy=0;entryX=0.5;entryY=1;entryDx=0;entryDy=0;" edge="1" parent="1" source="Wxa58QXRY7GNk46uSiOk-13" target="Wxa58QXRY7GNk46uSiOk-4">
          <mxGeometry relative="1" as="geometry" />
        </mxCell>
        <mxCell id="Wxa58QXRY7GNk46uSiOk-97" style="edgeStyle=none;rounded=0;orthogonalLoop=1;jettySize=auto;html=1;exitX=0;exitY=1;exitDx=0;exitDy=0;entryX=0.75;entryY=0;entryDx=0;entryDy=0;" edge="1" parent="1" source="Wxa58QXRY7GNk46uSiOk-32" target="Wxa58QXRY7GNk46uSiOk-44">
          <mxGeometry relative="1" as="geometry" />
        </mxCell>
        <mxCell id="Wxa58QXRY7GNk46uSiOk-98" style="edgeStyle=none;rounded=0;orthogonalLoop=1;jettySize=auto;html=1;exitX=1;exitY=1;exitDx=0;exitDy=0;entryX=0.25;entryY=0;entryDx=0;entryDy=0;" edge="1" parent="1" source="Wxa58QXRY7GNk46uSiOk-32" target="Wxa58QXRY7GNk46uSiOk-41">
          <mxGeometry relative="1" as="geometry" />
        </mxCell>
        <mxCell id="Wxa58QXRY7GNk46uSiOk-99" style="edgeStyle=none;rounded=0;orthogonalLoop=1;jettySize=auto;html=1;exitX=1;exitY=0.5;exitDx=0;exitDy=0;entryX=0;entryY=0.5;entryDx=0;entryDy=0;" edge="1" parent="1" source="Wxa58QXRY7GNk46uSiOk-71" target="Wxa58QXRY7GNk46uSiOk-31">
          <mxGeometry relative="1" as="geometry" />
        </mxCell>
        <mxCell id="Wxa58QXRY7GNk46uSiOk-100" value="" style="group" vertex="1" connectable="0" parent="1">
          <mxGeometry x="970" y="213.5" width="60" height="71" as="geometry" />
        </mxCell>
        <mxCell id="Wxa58QXRY7GNk46uSiOk-101" value="" style="shape=image;verticalLabelPosition=bottom;verticalAlign=top;imageAspect=0;aspect=fixed;image=data:image/svg+xml,PHN2ZyB4bWxucz0iaHR0cDovL3d3dy53My5vcmcvMjAwMC9zdmciIHZlcnNpb249IjEiIHZpZXdCb3g9IjAgMCA0OCA0OCIgZW5hYmxlLWJhY2tncm91bmQ9Im5ldyAwIDAgNDggNDgiPiYjeGE7ICAgIDxwb2x5Z29uIGZpbGw9IiM5MENBRjkiIHBvaW50cz0iNDAsNDUgOCw0NSA4LDMgMzAsMyA0MCwxMyIvPiYjeGE7ICAgIDxwb2x5Z29uIGZpbGw9IiNFMUY1RkUiIHBvaW50cz0iMzguNSwxNCAyOSwxNCAyOSw0LjUiLz4mI3hhOyAgICA8ZyBmaWxsPSIjMTk3NkQyIj4mI3hhOyAgICAgICAgPHJlY3QgeD0iMTYiIHk9IjIxIiB3aWR0aD0iMTciIGhlaWdodD0iMiIvPiYjeGE7ICAgICAgICA8cmVjdCB4PSIxNiIgeT0iMjUiIHdpZHRoPSIxMyIgaGVpZ2h0PSIyIi8+JiN4YTsgICAgICAgIDxyZWN0IHg9IjE2IiB5PSIyOSIgd2lkdGg9IjE3IiBoZWlnaHQ9IjIiLz4mI3hhOyAgICAgICAgPHJlY3QgeD0iMTYiIHk9IjMzIiB3aWR0aD0iMTMiIGhlaWdodD0iMiIvPiYjeGE7ICAgIDwvZz4mI3hhOzwvc3ZnPg==;" vertex="1" parent="Wxa58QXRY7GNk46uSiOk-100">
          <mxGeometry x="6" width="48" height="48" as="geometry" />
        </mxCell>
        <mxCell id="Wxa58QXRY7GNk46uSiOk-102" value="Report" style="text;strokeColor=none;align=center;fillColor=none;html=1;verticalAlign=middle;whiteSpace=wrap;rounded=0;" vertex="1" parent="Wxa58QXRY7GNk46uSiOk-100">
          <mxGeometry y="41" width="60" height="30" as="geometry" />
        </mxCell>
        <mxCell id="Wxa58QXRY7GNk46uSiOk-103" style="edgeStyle=none;rounded=0;orthogonalLoop=1;jettySize=auto;html=1;exitX=0.5;exitY=0;exitDx=0;exitDy=0;entryX=0.5;entryY=1;entryDx=0;entryDy=0;" edge="1" parent="1" source="Wxa58QXRY7GNk46uSiOk-101" target="Wxa58QXRY7GNk46uSiOk-34">
          <mxGeometry relative="1" as="geometry" />
        </mxCell>
        <mxCell id="Wxa58QXRY7GNk46uSiOk-104" style="edgeStyle=none;rounded=0;orthogonalLoop=1;jettySize=auto;html=1;exitX=1;exitY=0.5;exitDx=0;exitDy=0;entryX=0;entryY=0.5;entryDx=0;entryDy=0;" edge="1" parent="1" source="Wxa58QXRY7GNk46uSiOk-6" target="Wxa58QXRY7GNk46uSiOk-101">
          <mxGeometry relative="1" as="geometry" />
        </mxCell>
        <mxCell id="Wxa58QXRY7GNk46uSiOk-105" style="edgeStyle=none;rounded=0;orthogonalLoop=1;jettySize=auto;html=1;exitX=1;exitY=0.5;exitDx=0;exitDy=0;entryX=0;entryY=0.5;entryDx=0;entryDy=0;" edge="1" parent="1" source="Wxa58QXRY7GNk46uSiOk-14" target="Wxa58QXRY7GNk46uSiOk-6">
          <mxGeometry relative="1" as="geometry" />
        </mxCell>
        <mxCell id="Wxa58QXRY7GNk46uSiOk-106" style="edgeStyle=none;rounded=0;orthogonalLoop=1;jettySize=auto;html=1;exitX=1;exitY=0.5;exitDx=0;exitDy=0;entryX=0;entryY=0.5;entryDx=0;entryDy=0;" edge="1" parent="1" source="Wxa58QXRY7GNk46uSiOk-31" target="Wxa58QXRY7GNk46uSiOk-14">
          <mxGeometry relative="1" as="geometry" />
        </mxCell>
        <mxCell id="Wxa58QXRY7GNk46uSiOk-107" value="Aid/Salary Distribution System" style="text;strokeColor=none;align=center;fillColor=none;html=1;verticalAlign=middle;whiteSpace=wrap;rounded=0;fontStyle=1;fontSize=15;" vertex="1" parent="1">
          <mxGeometry x="16" y="50" width="262" height="30" as="geometry" />
        </mxCell>
      </root>
    </mxGraphModel>
  </diagram>
</mxfile>
